<?xml version="1.0" encoding="UTF-8" standalone="no"?><svg width="77.817" height="78.21" xmlns="http://www.w3.org/2000/svg"><style><![CDATA[@import url("https://fonts.googleapis.com/css?family=IM+Fell+Great+Primer");]]></style><rect x="0" y="0" width="77.817" height="78.21" id="background" fill="#CCC5B8"/><g id="map" transform="translate(45.607 46.675)"><g id="waterbody"><polygon points="52.222,52.676 52.893,51.245 53.298,49.838 53.526,48.395 53.577,46.917 53.452,45.403 53.15,43.853 52.671,42.267 52.015,40.646 51.183,38.989 50.173,37.296 49.27,35.53 48.474,33.69 47.784,31.776 47.2,29.79 46.723,27.729 46.352,25.595 46.087,23.388 45.929,21.107 45.89,18.999 45.971,17.065 46.172,15.304 46.492,13.717 46.931,12.302 47.491,11.061 48.169,9.994 48.968,9.1 49.884,8.271 50.919,7.509 52.071,6.813 53.342,6.182 54.731,5.618 56.238,5.12 57.863,4.687 59.606,4.321 61.383,3.846 63.194,3.262 65.038,2.57 66.916,1.769 68.827,0.859 70.772,-0.16 72.751,-1.288 74.763,-2.524 76.942,-3.604 79.286,-4.528 81.795,-5.296 84.471,-5.907 87.73,-6.361 91.571,-6.657 97.248,-6.791 108.516,-6.748 114.161,6.745 102.577,32.059 99.881,53.035 80.533,75.169 72.445,87.318 48.305,101.382 41.268,97.962 37.874,95.935 35.776,94.16 34.192,92.258 33.123,90.229 32.308,87.945 31.747,85.408 31.44,82.617 31.387,79.571 31.657,76.708 32.251,74.025 33.168,71.525 34.409,69.206 35.973,67.068 37.86,65.112 40.071,63.338 42.605,61.745 44.873,60.176 46.875,58.629 48.611,57.106 50.081,55.606 51.284,54.129" fill="#67635C" stroke="#1A1917" stroke-width="0.136"/><path d="M 52.41,55.076 C 52.69935940106716,54.681543659405165 53.219469344301416,53.88665520007783 53.44403783577615,53.48609735563087 C 53.66689363095937,53.08859440962587 54.056606562755,52.271287275424456 54.21633806080532,51.85343199881496 C 54.38268198424284,51.418278713528686 54.63857064047335,50.53709803463862 54.738810979022006,50.09898963723266 C 54.83463905762234,49.68016537396758 54.959065222731866,48.84975399587325 54.996579956875685,48.443322539633115 C 55.034541106803246,48.032054652555466 55.056642015191166,47.203695443781044 55.044259733984816,46.78978366471157 C 55.03181765459427,46.373872966994334 54.95753318258063,45.534111175610505 54.89694777014539,45.11284288286644 C 54.83636569285109,44.69159778034386 54.66669508700049,43.842322023286 54.55911115588888,43.41640210293502 C 54.45152555464177,42.990475570593084 54.188902466633756,42.132461937031664 54.03540268064278,41.702024816374255 C 53.88147094428773,41.270376440145505 53.52758935049155,40.40364656640971 53.329885447920105,39.96946326220427 C 53.130074011267574,39.53065154096128 52.6876546676057,38.6656629840729 52.456633251017,38.2348432452581 C 52.22816738860392,37.8087892255646 51.73163377231375,36.98542969561849 51.504516709226046,36.56542871485768 C 51.27891320770124,36.14822671948448 50.843616643959855,35.3067572808836 50.64204098499727,34.879170531601325 C 50.439689026683965,34.44993707895439 50.06012466371821,33.57300196528615 49.88318712303114,33.126228511598335 C 49.70607879676314,32.6790238183695 49.37643773112803,31.76521731786025 49.22434247584652,31.299432411800314 C 49.07223882853824,30.83362180553431 48.792727672749145,29.88238982828494 48.66571067116065,29.397761415664956 C 48.538686350234556,28.913105076397994 48.30949340913175,27.9240145846468 48.20766594535042,27.420342786313824 C 48.105827890580834,26.916618601503707 47.927206559694255,25.88932133604131 47.850704601207724,25.36647596808646 C 47.773857231779985,24.84126992186629 47.646423498938674,23.775670681927913 47.595423688063825,23.23603123898411 C 47.543550573716296,22.687151193155078 47.46844303492226,21.602362654642864 47.44438959571403,21.067173687096066 C 47.42072352339856,20.540603632029974 47.402125827703514,19.52861778790873 47.40701639062344,19.043969300460777 C 47.41176481436078,18.573406622964278 47.44449400103338,17.654930281730497 47.483323717541346,17.20885235217234 C 47.51977004930083,16.790154878346517 47.62197848356372,15.874517186510362 47.725395919634984,15.386407672731291 C 47.8510266949168,14.793455662238221 48.14950557013749,13.559342263643025 48.38673410202763,12.944936901680036 C 48.59773694218341,12.39845425328945 49.11982425000813,11.399584900026268 49.43130530947384,10.968221260713165 C 49.73540393195005,10.547081404805242 50.49039060577896,9.796835920420866 50.90498676491702,9.457461177675563 C 51.33154523630427,9.108294480632734 52.315866013794206,8.455908596534876 52.86459242294903,8.15784565730962 C 53.41359867999203,7.859630707387062 54.645132971162994,7.308235374685826 55.321580117870134,7.058409894228957 C 56.01127712265544,6.803690975790306 57.511610859378095,6.369443502708691 58.3064101316621,6.148073378343196 C 59.16186287234481,5.909809849176213 60.815827840271346,5.532112460249008 61.59267122712277,5.3117648390903565 C 62.17806393236048,5.145721216622825 63.386106180497066,4.76417337079057 64.00123747265322,4.532764966460386 C 64.79037200954073,4.235897669492141 66.5855770212909,3.514609971761312 67.57680199870039,3.0605736368024243 C 68.55501973969244,2.6124953417290415 70.52355044742998,1.6207770300472912 71.51785170204403,1.0897363364397499 C 72.56333160441517,0.531361930361557 74.38812060045565,-0.5682129196424546 75.21700176767362,-1.0199371397736712 C 75.88761996584833,-1.3854110998022593 77.0671941655479,-1.9821985544214866 77.57518258704928,-2.2113919535050743 C 78.1286330692111,-2.4610968520069267 79.24693085770404,-2.8955957793136076 79.80538598265696,-3.0901169510090964 C 80.38088192960383,-3.290573784341138 81.58095693166415,-3.6600506812837756 82.20505782015334,-3.8240707792625668 C 82.81502916782082,-3.984377489369754 84.12499579674713,-4.2852777368337716 84.82628884375228,-4.409661586192081 C 85.53345421203183,-4.53508697150729 87.10956623653219,-4.758906281191199 87.97766382802425,-4.847920878952239 C 88.79612399393635,-4.931845662485942 90.76361781223247,-5.08795266709267 91.91258802757258,-5.1362896492627055 C 93.11419710943107,-5.186841139623101 96.13127347818144,-5.458372696067926 97.92554771816448,-5.2664266677075675 C 99.92802821394068,-5.052207364176266 105.11330291119555,-5.408246177221528 106.76702952265012,-3.547206450632829 C 108.3010798582351,-1.8208457587653564 110.68755929047016,4.598100544279996 110.1929257278479,8.538804293062125 C 109.50349558629955,14.031435906897467 104.46088630421131,23.39909010527925 102.81158115944518,27.965516039045212 C 102.18339100442986,29.704784132824884 101.1755100676061,33.10407722285868 100.73041322347821,34.73763271220568 C 99.82708757902721,38.05293944742224 98.76804202870223,47.44571683449747 96.1070277378574,52.57198132844623 C 93.21074697740261,58.151470802782164 84.92191361001485,67.82340628812202 80.98015751207224,72.78516779990531 C 78.03936849345432,76.48694269522906 72.54538281173207,83.72266690362731 69.22748900345097,86.40711912818924 C 64.40702818194914,90.30727311846964 54.91582367947032,95.66981433496187 50.65378776173474,97.32172485787721 C 47.93756703620692,98.37449721495393 43.60105021372515,97.05953168705952 42.414268874384696,96.79957975953535 C 41.146135744548985,96.52180858086038 39.5335480329425,95.15721415951197 38.938455131460316,94.7556048845727 C 38.30825292639628,94.33030145714059 37.30961375831827,93.47374296827519 36.91665105906742,93.0894123231509 C 36.5002581190689,92.68216611998729 35.80052773056856,91.82899299775141 35.510414545761094,91.40286669256174 C 35.22033452938229,90.97678910608151 34.73786254153988,90.05637171307248 34.5282345504446,89.58123980507351 C 34.31330990722895,89.09410278070237 33.942040470574554,88.0458224430131 33.784411628181324,87.49079819848008 C 33.62632827549499,86.93417358545972 33.3637138781663,85.74903656634184 33.26235904266283,85.12398701610286 C 33.160229533427625,84.49416009668167 33.014433024951174,83.17341332954203 32.97279799727817,82.48562274292463 C 32.930257014839576,81.78286622030332 32.90428870709356,80.36748780946493 32.93148938280168,79.65817973390038 C 32.958027145075064,78.96615835583198 33.08346659994472,77.6191408023767 33.18435583641669,76.96885965364785 C 33.28459913457566,76.32274189759472 33.561541398134,75.07293918755485 33.735773807406346,74.4741678628029 C 33.909918228548754,73.87569892019299 34.33455543778683,72.71838836495935 34.5822788458619,72.16472352442558 C 34.82993604954167,71.61120665152333 35.40243753741059,70.54106023267133 35.724343121625964,70.0296911748587 C 36.04629732114639,69.51824488830584 36.76912939903903,68.53016693728937 37.1670272696321,68.05867370435871 C 37.564700996732604,67.58744607259801 38.441835354705724,66.67767934282257 38.91879095106549,66.24439689246965 C 39.3962450166045,65.81066161600658 40.441914850706745,64.98166785655557 40.99833335223237,64.5781868410304 C 41.56894519275052,64.16441367523579 42.78415514433224,63.411450295387 43.38374316999731,63.00668382105591 C 43.977942311237435,62.60555524417422 45.136338865169314,61.814830219557265 45.69001988156764,61.41094978181915 C 46.23718421386514,61.01182291364418 47.27066841519258,60.215313024880956 47.75550607891563,59.81771857744544 C 48.23926664614219,59.421007410370336 49.14420842059984,58.629109613988874 49.56380183334623,58.23422835556692 C 49.98324373050655,57.83948968914828 50.76016806250567,57.04996402481467 51.11546036105316,56.655650406531116 C 51.470597281905356,56.26150923088559 52.11932123421157,55.471065056632646 52.40988346705302,55.07556504790368" fill="none" stroke="#1A1917" stroke-width="0.068"/><path d="M 54.115,56.493 C 54.43571260551286,56.05590957269174 55.04214143439147,55.13792924778526 55.31044640449547,54.65183013655337 C 55.59643950330035,54.13368471757878 56.09831132188744,53.06587072900668 56.30796629316485,52.5194757658248 C 56.50872071594012,51.99627708003857 56.80563466897967,50.961780673203755 56.91836194878157,50.4613406419958 C 57.02974299307835,49.96687707131613 57.16944555950365,48.98856571675363 57.21084027697475,48.51126865368031 C 57.25253828010658,48.03047458992717 57.27097867057017,47.06911602883676 57.2539146786719,46.59228820566273 C 57.23737731995642,46.130176361941835 57.155750954340654,45.168239620766336 57.073522692576546,44.674133401714975 C 56.999630435305164,44.23011788838368 56.778730397040334,43.12726362035495 56.571134165230944,42.489488381119884 C 56.32241554650295,41.725377321979316 55.635099017149884,39.86035149057677 55.155288401497145,38.780951607233305 C 54.630071182117454,37.59940333207233 53.40133572718523,35.33201006891754 52.87061033281306,34.16465174200628 C 52.42643081335245,33.18765560392026 51.6973759921937,31.381574481226625 51.41595561141246,30.556093110003292 C 51.10786054618972,29.652367742987643 50.67641118088221,27.972410504118635 50.50146810191664,27.215322869824416 C 50.36258112949253,26.614272459550385 50.14800058423766,25.371841663386256 50.07070512490842,24.734356609293133 C 49.9661464585411,23.872021516604622 49.797281944620636,22.024691577887484 49.75278914051138,21.04068269882929 C 49.709506950887466,20.083447933620317 49.72045728797919,18.405673426469665 49.75212009003908,17.688486848495494 C 49.776728267891905,17.131092880928612 49.90431564802941,16.166092821442078 49.98584793411591,15.76172354872467 C 50.08685326314511,15.260775355063215 50.3507997564179,14.303971475911643 50.524294947876264,13.858791881485342 C 50.68682390543301,13.441751070155405 51.07949239495654,12.683424964341397 51.31219997996758,12.358373514205498 C 51.53683213306614,12.044602018066378 52.10159092338566,11.467392337829766 52.42335457456981,11.20614054860342 C 52.759403682167296,10.933289869837607 53.56537750915539,10.399343759115478 54.032417681986466,10.149728320373782 C 54.50236691922726,9.898558095917274 55.58956440516632,9.413031066197803 56.20390603852656,9.185577720697712 C 56.83418880876013,8.952222341677473 58.22609853544244,8.536924588318024 58.97454754904607,8.319958187410199 C 59.733752936034136,8.099873642744253 61.292735780284154,7.717319843191791 62.072592918117216,7.484315714633952 C 62.7725953380872,7.2751704161672475 64.24329429816237,6.805971208064389 65.00287325799943,6.518827300308961 C 65.84264638916163,6.201367561084936 67.65176145442608,5.4531932991817325 68.61398369182642,5.011471404516283 C 69.59020397556115,4.563323506264442 71.5280267459122,3.5863952345534673 72.4980781322938,3.0780461904025054 C 73.47572896569184,2.565714706062169 75.23558931742059,1.5400029066536824 76.06182512747831,1.1084791218866314 C 76.74007250472224,0.754246260427659 78.09675121400603,0.07304748453323529 78.79242483722001,-0.209344987372781 C 79.71763716398975,-0.5849133390767772 81.58465754441859,-1.2305107788523335 82.51789281737413,-1.5122108869128876 C 83.25137794635658,-1.7336157631353601 84.64963723567669,-2.0536598925270098 85.30447609126567,-2.1750288777286144 C 85.99117429317296,-2.302302730209913 87.50636966794059,-2.5081494599988896 88.33170419846086,-2.5897529134033355 C 89.16504192043472,-2.672147667833874 91.14471428310696,-2.8416990091452754 92.29202793487812,-2.8659103811620548 C 93.53319096652318,-2.892102224906128 96.39617078762026,-3.1147954260418818 97.95194988186299,-2.792765704869816 C 99.45880935926891,-2.4808618239459554 103.29496191998687,-1.9281415162106015 104.35086044447874,-0.3698603409617708 C 105.40524828622408,1.1861913885296325 106.767999158678,6.45058724855952 106.40191064124426,9.677575409842618 C 105.94528503462567,13.702627703277612 102.69107727716862,21.447850723018917 101.41699352729708,25.49151841762995 C 100.62534282774561,28.00404740916231 99.0715048022958,33.102752414750945 98.2157903070224,35.65856005314344 C 97.08370172733747,39.03982875348401 94.93669422575148,47.46959529845758 92.56841695935512,51.92002898530638 C 89.98158229060473,56.78117270165548 83.29469742898569,65.92708851986072 79.70497489745743,70.443826811677 C 76.58763665756753,74.36619152733081 70.28843995907482,81.44438434304395 66.88115833575897,84.24080687773878 C 62.81962789821482,87.5741841844976 54.983968177653054,92.01544086017724 51.6285463785451,93.48669971856285 C 49.092917911151254,94.59850206937898 44.91393756174781,94.47063985886633 43.68589690853728,94.41128197462298 C 42.5031359082651,94.35411270228809 40.93074435528387,93.25057980099753 40.394753904306484,92.9437094262167 C 39.804618475515916,92.60583945134275 38.93864461535142,91.82412675467839 38.59509200960343,91.4966457074597 C 38.24290429956478,91.16093351034249 37.66671411695462,90.46072646083019 37.43109640628484,90.11869327203404 C 37.1923473975575,89.77211455116964 36.78757367584574,89.01517901137436 36.61237036716853,88.61843844566536 C 36.43146459806512,88.20878489679124 36.112613754598534,87.30925067617451 35.97609814768589,86.82391056170484 C 35.83855426018485,86.33491470537705 35.6049297802565,85.2792003189253 35.51439559657987,84.71491991841526 C 35.422873938880365,84.14448480137172 35.2905330120493,82.94542536627075 35.25338882661899,82.3194163631312 C 35.21574114857628,81.68492175437878 35.19602426103223,80.40949872113222 35.2210830658774,79.77158133591044 C 35.24565234307434,79.14612576597827 35.35863284583287,77.9329927977841 35.44862162310592,77.34941097724162 C 35.53768217043001,76.77184877536621 35.78320081272604,75.66227328776796 35.936153374972555,75.13431382941455 C 36.08883097240768,74.60730349064933 36.46093672661822,73.59328518901513 36.67668319749213,73.11040566661083 C 36.892327224826346,72.62775543132913 37.391112737030625,71.69541306078068 37.67150915172472,71.25027454346308 C 37.951836852198866,70.80524511222642 38.583425598274516,69.94155427952971 38.93312194070785,69.52823505409128 C 39.266811927625156,69.13383434069088 40.03763113799664,68.3218105239773 40.4863161582845,67.92334854928647 C 40.911612108177934,67.54565761609278 42.02929502987347,66.66722649973865 42.71795753170709,66.16705071479211 C 43.65954032187037,65.48317884735619 45.63517822003294,64.17414116480845 46.61492929880371,63.47213495767814 C 47.34944052844212,62.945846746737864 48.58860672085996,62.00649666004833 49.09500201310759,61.59780358040177 C 49.6240041719797,61.17086532730402 50.57947607545497,60.32936842568688 51.01146562599462,59.92385163268431 C 51.45941273567718,59.50335517593825 52.29809896338483,58.655572925326666 52.68526666526673,58.22755398534718 C 53.07006070108423,57.802159164135375 53.78905945408003,56.93670758469962 54.11458758945436,56.49330986235801" fill="none" stroke="#1A1917" stroke-width="0.068"/><path d="M 58.113,56.434 C 58.44420227027754,55.837999035485915 59.057222549774615,54.564841159269555 59.31743040237115,53.8856755578661 C 59.590446366029205,53.1730796492481 60.01365913510007,51.7494588398025 60.17573495859889,51.049463868402576 C 60.324273965076266,50.40793353188284 60.493847986826026,49.17591659426238 60.54215287970601,48.59617859904834 C 60.59082847642531,48.01199154934293 60.602708265918466,46.84599959586034 60.574014773970994,46.269452405138885 C 60.545759980754234,45.701720123429865 60.425218092247206,44.502000333183595 60.30737324790976,43.87867898629461 C 60.19279113180896,43.272615315551214 59.85514220889721,41.87006162056287 59.59479793984375,41.09004248376153 C 59.30343471211438,40.21708724562473 58.54270759447833,38.27814876411483 58.08247550992906,37.21264858216629 C 57.60360999670351,36.10400946594646 56.542268652196334,34.00183824911429 56.080389715306566,32.95370708169339 C 55.66581733701383,32.0129275913653 54.964006672864976,30.297919130712245 54.69273227364528,29.52038281350405 C 54.41805984779522,28.733106951688825 54.01831708453222,27.264316261273606 53.862319703699086,26.59619604085803 C 53.72159775721023,25.993498883999933 53.51039134866921,24.75551279070603 53.43300221066409,24.125092694861628 C 53.34026772818243,23.369667801379794 53.199972358041386,21.7827200941525 53.169539180648464,20.952732694466732 C 53.14050632544033,20.160935515731914 53.13429763489015,18.64291171938341 53.20564867411384,17.924604057924892 C 53.278910052044466,17.18706456825324 53.51124496336156,15.86915253372202 53.72828240406714,15.327733499831053 C 53.894362581592176,14.913431852282464 54.45352136087783,14.096151893868717 54.86093011500069,13.795358543284115 C 55.35793964055741,13.428412180566578 56.83708408195034,12.69473763845578 57.78882809714195,12.32979805573034 C 58.92747443749067,11.893192084286378 61.38016066236835,11.218945235203556 62.636636340081964,10.813818402361386 C 63.628731279056296,10.49393614149917 65.50301727577649,9.890272342200799 66.36917952203548,9.563225921389176 C 67.30262373683888,9.21077510654786 69.18159972516743,8.417936795286124 70.1278311561354,7.98528545397393 C 71.1071997580363,7.53748259583169 73.01860992802908,6.576476584135934 73.96299592588669,6.091057543465147 C 74.91317336037879,5.602661675923147 76.63893179575541,4.6335740262494935 77.45039986844553,4.221449175546344 C 78.16573598925015,3.8581473995296385 79.54334894412004,3.1901183018218844 80.21659710017207,2.9150059684901115 C 81.00363105448244,2.593396847640286 82.56701904251675,2.048900937493362 83.33606024099423,1.8163660813936355 C 84.00842413519317,1.613063525309858 85.32714351418737,1.2964835992424673 85.96770260451126,1.1760451774252538 C 86.61317045114892,1.0546838074016291 88.03832721030686,0.8591570911766955 88.81512141902685,0.7861887077675088 C 89.63991047116264,0.7087119151854486 91.51323268915503,0.5565386259623384 92.5615291049155,0.5566522226193948 C 93.69210766509255,0.5567747356253013 96.05135970496973,0.46308176324066264 97.19579120194985,0.7870968631870264 C 98.09345642395895,1.0412467073630727 100.58143952973882,1.7688580704155312 101.04488692116891,2.9584875775247714 C 101.50871098342716,4.149083966182886 102.17778052079568,8.820072787571334 101.57558664697255,12.02965425556701 C 100.69730862445329,16.710712943410297 97.37271914035846,27.29545759394251 95.35849373848292,33.26590678625399 C 93.82862732926377,37.80064736631119 90.67797150442132,46.65100708264473 88.53452527467032,50.6852060446799 C 86.12467759010347,55.22080152302869 80.26223656115506,63.665198159629426 77.087085423374,67.65468474421363 C 74.02086115696585,71.5073078305939 67.70165637456599,78.20293255544982 64.46060422475635,80.93339924851273 C 60.95886392912683,83.88348607310587 54.34307596723087,87.74614186979626 51.64053396659782,89.09246420423248 C 49.45071945739789,90.18336165608255 45.8761197299721,90.62604062201254 44.82169091955235,90.71689478740147 C 43.93080485115139,90.79365739991864 42.60408272174791,90.1505186642838 42.18410014202305,89.90727160914909 C 41.63287042351436,89.58800835347355 40.72220577922981,88.65701897489053 40.363727535108815,88.13491515892584 C 40.01566793523793,87.62798552440553 39.48375512416906,86.38061683382854 39.28497690401168,85.68485830976127 C 39.04715772601645,84.85244960751085 38.802189390531,83.16589692787572 38.70802673707719,82.33967289031385 C 38.63081302465352,81.66216622611263 38.616418372865205,80.45476088029658 38.62941505327071,79.93267377243367 C 38.642937690405105,79.3894585596335 38.74719046436745,78.37549109904693 38.81837148793408,77.90703547481664 C 38.88846387662125,77.44574436026132 39.07583177299576,76.54268383276332 39.210252373176395,76.11007477569478 C 39.33662265795553,75.70337424269374 39.678787339046664,74.79692607868739 39.93227989669856,74.32211719793976 C 40.260730645720855,73.70690650312261 41.01461848558751,72.5020699636407 41.444697694093136,71.9248060177331 C 41.759862801360875,71.50178288656171 42.47660724177396,70.73928092251636 42.858102041813346,70.39499958074228 C 43.27060554524229,70.02273432409301 44.345358957530856,69.20041837517796 44.986288779089605,68.7286845224157 C 45.77882483639884,68.14536623203213 47.486190753739585,66.9813738424159 48.36087068079984,66.34488026406682 C 49.109301401216854,65.80025664501834 50.463465485807546,64.78816754696204 51.059402080861005,64.3093563801138 C 51.64522898046771,63.83866794832415 52.71245791251322,62.91076154222163 53.19657606234134,62.459584822422535 C 53.69147190377095,61.99836377037626 54.62302743605344,61.061561506643436 55.05555306675363,60.5851202731282 C 55.487636810532216,60.10916579261685 56.310885041661656,59.12599013500937 56.68910434981582,58.61244983835817 C 57.06564782183611,58.10118496595628 57.7889688906892,57.01636892735947 58.11269569620266,56.434179538520446" fill="none" stroke="#1A1917" stroke-width="0.068"/><path d="M 62.358,59.03 C 62.82475607958845,58.17282799205016 63.68262099332025,56.355435798082176 64.04967223105282,55.39445501508182 C 64.39701713607967,54.48506759313537 64.90774674508175,52.70769503602517 65.09722432036183,51.857714183066385 C 65.2803407473578,51.036268919273404 65.488772435621,49.446132323825225 65.54412956375911,48.690442065335496 C 65.59920866124016,47.938547254084085 65.59831272713843,46.434854521964006 65.54900719653924,45.69034369325488 C 65.49955449417453,44.94361057889596 65.30409168110393,43.385365713225355 65.13970401133926,42.58363823371489 C 64.97536434512506,41.78214487009381 64.51243417777386,40.05260264566598 64.2046403373678,39.13379443938491 C 63.874911770638974,38.14950796842733 63.06468435338336,36.12192981954811 62.62182230918445,35.06740474660921 C 62.172642211920916,33.99783538288929 61.22861765964886,32.02421819391872 60.82284588525305,31.08120314601384 C 60.44634339400875,30.206210016327294 59.809603681693375,28.651963805436445 59.56684114720436,27.967617652982966 C 59.330894585433576,27.302485687408726 58.98363162224464,26.078089586303314 58.853044922588865,25.52834585386281 C 58.72858397626374,25.00439031048658 58.540557663357895,23.927319106555064 58.47663748090566,23.378079559048338 C 58.40340423174858,22.74881670205415 58.280307422073086,21.41723952465644 58.293142243736725,20.71733496210954 C 58.30701549056275,19.960803316766533 58.31294290960017,18.562244378959388 58.5747657370567,18.02697955978038 C 58.747913967169886,17.672999133462955 59.627725055644795,17.154224788061757 60.145067593370676,16.93129958454338 C 60.93274703580671,16.591885004825716 62.94593282947796,16.032987619911736 64.1080579886278,15.642659285769293 C 65.14934488028736,15.292917457545583 67.25873482093554,14.590482712840792 68.30876692592223,14.189320258284114 C 69.34108811695761,13.79492421942026 71.35572703485782,12.94371925789867 72.3403198785049,12.497541750207493 C 73.33870867223688,12.045112477977474 75.24107024419239,11.095003636599749 76.16041834428765,10.631270569308438 C 77.0989225089409,10.15787489372567 78.78963520309445,9.239661116937352 79.57036979433188,8.850595371802687 C 80.27462987086577,8.499639394546746 81.57356764574706,7.88182669973072 82.17504276286436,7.633985246763999 C 82.82948944133958,7.364316542163361 84.0987772682815,6.91872142180168 84.70717514099417,6.733943719069885 C 85.2696293606415,6.563119652682458 86.39308823282826,6.288243730658192 86.95040727801451,6.183649990195631 C 87.51840201327806,6.0770527108860675 88.76390205460935,5.906618908821834 89.43894085459931,5.845919024322432 C 90.20232179449339,5.7772753628302285 91.77067475886729,5.685036628440188 92.57391969959279,5.677980457606066 C 93.42827398046529,5.670475312596058 94.8411833932544,5.638371133539786 95.35611492285229,5.793939125086319 C 95.5486670428223,5.852111804073668 96.12813804306747,6.336392871319547 96.14028503781155,6.75542912970645 C 96.1636918698553,7.562897275280365 96.17072819146733,11.019263664552739 95.58109619558807,13.555143663372581 C 94.74172197464284,17.165111089319204 92.27666129790452,25.99252052597715 90.47287320562808,31.129744653201367 C 88.94833375788346,35.47166312322219 85.59138556155476,44.13259538745349 83.40201120366737,48.241418362662735 C 81.14037253967794,52.48586055718454 75.84497729746093,60.33093958256367 72.9826230036477,63.95388987677092 C 70.10630744167861,67.59451128202203 64.17067301789773,73.7233344122535 61.26616184690203,76.25929235993856 C 58.257423157765366,78.88625240313507 52.747027203619005,82.27575786906613 50.62978293759181,83.47037959969217 C 48.90901906620663,84.44129351218568 46.23696916901185,85.07091728759268 45.53650654976499,85.13450262014928 C 44.996863897015324,85.18348932778217 44.37254311571144,84.32277149500597 44.226791956375095,84.05161876893622 C 43.98411569898188,83.60014840640741 43.87264575832381,82.48854328930499 43.80713368796973,81.9172097491903 C 43.75355963205097,81.449988138563 43.71315666947168,80.47648476556998 43.75993624577791,79.98015034461994 C 43.81154670460052,79.43255993834953 43.977003832210954,78.21361829811808 44.21478085903697,77.59204610770946 C 44.45221634906415,76.97136672759034 45.14493904511216,75.67905349394785 45.6380271316497,75.07063876858375 C 46.12893730478026,74.46491134113569 47.412734644547335,73.3540868533416 48.11505811393304,72.77954671932534 C 48.84981681228789,72.1784727421284 50.436824783662026,71.08784059162987 51.21798127225424,70.50592216791026 C 51.96274108737456,69.95111725494644 53.38772091846055,68.89123012559058 54.047369487367256,68.36030251684281 C 54.694556354659035,67.83940488731609 55.90898258378933,66.79847496555807 56.47234734886998,66.27687029386972 C 57.03761709157371,65.75350185332458 58.11563328400919,64.67949897641955 58.62120257948065,64.12551032491788 C 59.1221975083764,63.57653413598752 60.10552100435347,62.418327490557495 60.563119239336764,61.794317212620456 C 61.015602298188334,61.177282316657454 61.935404197540784,59.80530841146442 62.35762761859795,59.030281696608945" fill="none" stroke="#1A1917" stroke-width="0.068"/><path d="M 82.962,28.795 C 81.5183087943673,32.90168043807413 78.5173510516817,40.06522029998009 77.08954967702235,43.15625737540737 C 75.95835215596249,45.60517887057098 74.02198706341126,48.54273675538443 73.5450745134024,49.18290987023147 C 73.38071937666653,49.4035283878682 73.13628365342308,48.618012116300285 73.11921546957873,48.485748529531314 C 73.04876940866917,47.93985279893574 73.14825351387057,46.68620466738577 73.13275765174556,45.98781263519967 C 73.12395364971086,45.59101994158957 73.07068439206087,44.79554192385219 73.0285190536606,44.398098954819396 C 72.96347877586142,43.78504088162572 72.8033025838563,42.531546447271985 72.69838189242579,41.89346410131371 C 72.63550936382468,41.51110052746429 72.46002010928474,40.629446899355415 72.32779933734571,40.136624174684755 C 72.122431604209,39.37116286085622 71.5973450683985,37.49421740803116 71.22477006440685,36.40091262440881 C 70.8790988980502,35.38655595611628 70.08084879926123,33.33583189864414 69.65439527176733,32.29163881029406 C 69.21106788777622,31.206129228604755 68.30891627556652,29.239103861309506 67.92659912872008,28.325173831767568 C 67.58558507412654,27.509978940406647 66.9363203935899,26.1185781980439 66.81011506829391,25.492380362620526 C 66.69643781680162,24.92834355470922 66.44690921795443,23.55188477793809 66.87396419043246,23.102274415274287 C 67.44284209526911,22.503350582071082 69.56109377699704,21.850989508802012 70.76458246347279,21.329053310433977 C 71.85675469541216,20.85539350032736 74.11463556414714,19.975288807138185 75.23983097954883,19.47411508396281 C 76.35172674612937,18.978865162489242 78.41479382556524,17.967443477931237 79.38340162193093,17.490141750811564 C 80.34458411063511,17.01649899916631 82.01383329890545,16.13254065977481 82.74795870452633,15.77432829305214 C 83.47616609159266,15.419003590230622 84.62694835921934,14.654107342546594 85.11790820765047,14.692021483716223 C 85.33482735151216,14.7087729615999 86.7351205603989,15.281605801480506 86.61418216525564,16.072895563984446 C 86.28224378856868,18.244740485057136 84.42911976710678,24.624768248889364 82.96238217946382,28.795447255940125" fill="none" stroke="#1A1917" stroke-width="0.068"/></g><g fill="none"><polyline points="10.82,7.586 19.76,12.776 13.851,23.541 -6.279,26.279 -30.986,21.756 -37.612,18.396 -40.861,16.547 -42.939,15.09 -44.585,13.651 -45.797,12.23 -46.822,10.702 -47.659,9.068 -48.308,7.328 -48.769,5.481 -49.218,3.628 -49.655,1.768 -50.08,-0.097 -50.494,-1.969 -50.895,-3.847 -51.284,-5.732 -51.661,-7.622 -52.026,-9.519 -52.207,-11.536 -52.204,-13.673 -52.017,-15.929 -51.646,-18.306 -51.091,-20.802 -50.351,-23.418 -49.428,-26.154 -48.32,-29.01 -47.093,-31.795 -45.746,-34.508 -44.279,-37.149 -42.692,-39.719 -40.985,-42.218 -39.158,-44.645 -37.211,-47.001 -35.144,-49.286 -33.046,-51.315 -30.916,-53.089 -28.754,-54.608 -26.56,-55.871 -24.335,-56.88 -22.077,-57.633 -19.788,-58.131 -17.468,-58.374 -15.127,-58.681 -12.767,-59.053 -10.388,-59.489 -7.989,-59.989 -5.571,-60.553 -3.133,-61.182 -0.675,-61.875 1.802,-62.632 4.325,-63.163 6.894,-63.466 9.509,-63.541 12.17,-63.39 14.878,-63.012 17.631,-62.406 20.431,-61.573 23.276,-60.514 26.171,-59.261 29.114,-57.816 32.107,-56.179 35.148,-54.349 38.238,-52.326 41.377,-50.111 44.564,-47.704 47.801,-45.103 51.119,-43.185 54.518,-41.948 58,-41.393 61.562,-41.519 65.693,-42.684 70.391,-44.887 77.115,-49.197 90.24,-58.826" stroke="#67635C" stroke-width="2.136" stroke-linejoin="round" stroke-linecap="butt"/><polyline points="0.371,10.285 10.82,7.586 19.76,12.776 13.851,23.541 -6.279,26.279 -30.986,21.756 -37.612,18.396 -40.861,16.547 -42.939,15.09 -44.585,13.651 -45.797,12.23 -46.822,10.702 -47.659,9.068 -48.308,7.328 -48.769,5.481 -49.218,3.628 -49.655,1.768 -50.08,-0.097 -50.494,-1.969 -50.895,-3.847 -51.284,-5.732 -51.661,-7.622 -52.026,-9.519 -52.207,-11.536 -52.204,-13.673 -52.017,-15.929 -51.646,-18.306 -51.091,-20.802 -50.351,-23.418 -49.428,-26.154 -48.32,-29.01 -47.093,-31.795 -45.746,-34.508 -44.279,-37.149 -42.692,-39.719 -40.985,-42.218 -39.158,-44.645 -37.211,-47.001 -35.144,-49.286 -33.046,-51.315 -30.916,-53.089 -28.754,-54.608 -26.56,-55.871 -24.335,-56.88 -22.077,-57.633 -19.788,-58.131 -17.468,-58.374 -15.127,-58.681 -12.767,-59.053 -10.388,-59.489 -7.989,-59.989 -5.571,-60.553 -3.133,-61.182 -0.675,-61.875 1.802,-62.632 4.325,-63.163 6.894,-63.466 9.509,-63.541 12.17,-63.39 14.878,-63.012 17.631,-62.406 20.431,-61.573 23.276,-60.514 26.171,-59.261 29.114,-57.816 32.107,-56.179 35.148,-54.349 38.238,-52.326 41.377,-50.111 44.564,-47.704 47.801,-45.103 51.119,-43.185 54.518,-41.948 58,-41.393 61.562,-41.519 65.693,-42.684 70.391,-44.887 77.115,-49.197 90.24,-58.826" stroke="#CCC5B8" stroke-width="1.864" stroke-linejoin="round" stroke-linecap="round"/></g><g fill="none"><polyline points="-10.081,-3.523 -11.021,-14.621 -0.5,-24.811 1.172,-34.371 -3.245,-35.713 -5.629,-36.267 -7.453,-36.48 -9.208,-36.502 -10.893,-36.332 -12.93,-35.928 -15.319,-35.291 -18.832,-34.143 -25.79,-31.656 -33.66,-34.757 -37.942,-36.55 -41.26,-38.07 -44.487,-39.661 -47.625,-41.323 -51.458,-43.472 -55.985,-46.107 -62.685,-50.13 -75.997,-58.247" stroke="#67635C" stroke-width="2.136" stroke-linejoin="round" stroke-linecap="butt"/><polyline points="0.371,10.285 -10.081,-3.523 -11.021,-14.621 -0.5,-24.811 1.172,-34.371 -3.245,-35.713 -5.629,-36.267 -7.453,-36.48 -9.208,-36.502 -10.893,-36.332 -12.93,-35.928 -15.319,-35.291 -18.832,-34.143 -25.79,-31.656 -33.66,-34.757 -37.942,-36.55 -41.26,-38.07 -44.487,-39.661 -47.625,-41.323 -51.458,-43.472 -55.985,-46.107 -62.685,-50.13 -75.997,-58.247" stroke="#CCC5B8" stroke-width="1.864" stroke-linejoin="round" stroke-linecap="round"/></g><g fill="none"><polyline points="0.371,10.285 -6.279,26.279 -8.068,34.899 -8.923,39.418 -9.442,42.709 -9.824,45.73 -10.067,48.48 -10.239,51.28 -10.339,54.129 -10.367,57.026 -10.324,59.973 -10.228,62.893 -10.081,65.786 -9.882,68.652 -9.631,71.492 -9.271,74.645 -8.802,78.114 -8.052,82.921 -6.505,92.139" stroke="#67635C" stroke-width="2.136" stroke-linejoin="round" stroke-linecap="butt"/><polyline points="0.371,10.285 -6.279,26.279 -8.068,34.899 -8.923,39.418 -9.442,42.709 -9.824,45.73 -10.067,48.48 -10.239,51.28 -10.339,54.129 -10.367,57.026 -10.324,59.973 -10.228,62.893 -10.081,65.786 -9.882,68.652 -9.631,71.492 -9.271,74.645 -8.802,78.114 -8.052,82.921 -6.505,92.139" stroke="#CCC5B8" stroke-width="1.864" stroke-linejoin="round" stroke-linecap="round"/></g><g fill="none"><polyline points="-22.485,6.668 -22.937,6.802" stroke="#67635C" stroke-width="2.136" stroke-linejoin="round" stroke-linecap="butt"/><polyline points="-10.081,-3.523 -22.485,6.668 -22.937,6.802" stroke="#CCC5B8" stroke-width="1.864" stroke-linejoin="round" stroke-linecap="round"/></g><g fill="none"><polyline points="35.809,34.437 31.24,35.73 28.85,36.459 27.117,37.055 25.532,37.662 24.097,38.279 22.64,38.956 21.164,39.69 19.667,40.484 18.15,41.335 16.457,42.118 14.589,42.832 12.546,43.477 10.327,44.052 7.569,44.596 4.27,45.109 -0.665,45.702 -10.519,46.712 -20.928,47.45 -26.281,47.926 -30.046,48.389 -33.38,48.918 -36.283,49.515 -39.14,50.206 -41.952,50.992 -44.719,51.872 -47.441,52.847 -50.02,53.683 -52.455,54.379 -54.747,54.935 -56.896,55.352 -58.902,55.629 -60.765,55.766 -62.485,55.764 -64.061,55.623 -65.697,55.657 -67.392,55.868 -69.146,56.255 -70.959,56.818 -73.087,57.715 -75.531,58.948 -79.059,60.99 -85.977,65.269" stroke="#1A1917" stroke-width="5.936" stroke-linejoin="round" stroke-linecap="butt"/><polyline points="35.809,34.437 31.24,35.73 28.85,36.459 27.117,37.055 25.532,37.662 24.097,38.279 22.64,38.956 21.164,39.69 19.667,40.484 18.15,41.335 16.457,42.118 14.589,42.832 12.546,43.477 10.327,44.052 7.569,44.596 4.27,45.109 -0.665,45.702 -10.519,46.712 -20.928,47.45 -26.281,47.926 -30.046,48.389 -33.38,48.918 -36.283,49.515 -39.14,50.206 -41.952,50.992 -44.719,51.872 -47.441,52.847 -50.02,53.683 -52.455,54.379 -54.747,54.935 -56.896,55.352 -58.902,55.629 -60.765,55.766 -62.485,55.764 -64.061,55.623 -65.697,55.657 -67.392,55.868 -69.146,56.255 -70.959,56.818 -73.087,57.715 -75.531,58.948 -79.059,60.99 -85.977,65.269" stroke="#67635C" stroke-width="5.664" stroke-linejoin="round" stroke-linecap="round"/><polyline points="35.809,34.437 31.24,35.73 28.85,36.459 27.117,37.055 25.532,37.662 24.097,38.279 22.64,38.956 21.164,39.69 19.667,40.484 18.15,41.335 16.457,42.118 14.589,42.832 12.546,43.477 10.327,44.052 7.569,44.596 4.27,45.109 -0.665,45.702 -10.519,46.712 -20.928,47.45 -26.281,47.926 -30.046,48.389 -33.38,48.918 -36.283,49.515 -39.14,50.206 -41.952,50.992 -44.719,51.872 -47.441,52.847 -50.02,53.683 -52.455,54.379 -54.747,54.935 -56.896,55.352 -58.902,55.629 -60.765,55.766 -62.485,55.764 -64.061,55.623 -65.697,55.657 -67.392,55.868 -69.146,56.255 -70.959,56.818 -73.087,57.715 -75.531,58.948 -79.059,60.99 -85.977,65.269" stroke="#1A1917" stroke-width="3.562" stroke-linejoin="round" stroke-linecap="butt"/><polyline points="35.809,34.437 31.24,35.73 28.85,36.459 27.117,37.055 25.532,37.662 24.097,38.279 22.64,38.956 21.164,39.69 19.667,40.484 18.15,41.335 16.457,42.118 14.589,42.832 12.546,43.477 10.327,44.052 7.569,44.596 4.27,45.109 -0.665,45.702 -10.519,46.712 -20.928,47.45 -26.281,47.926 -30.046,48.389 -33.38,48.918 -36.283,49.515 -39.14,50.206 -41.952,50.992 -44.719,51.872 -47.441,52.847 -50.02,53.683 -52.455,54.379 -54.747,54.935 -56.896,55.352 -58.902,55.629 -60.765,55.766 -62.485,55.764 -64.061,55.623 -65.697,55.657 -67.392,55.868 -69.146,56.255 -70.959,56.818 -73.087,57.715 -75.531,58.948 -79.059,60.99 -85.977,65.269" stroke="#67635C" stroke-width="3.426" stroke-linejoin="round" stroke-linecap="round"/><g><path fill="#67635C" stroke="#67635C" stroke-width="0.136" stroke-linejoin="round" stroke-linecap="round" d="M 35.019,31.646 C 45.850926359428996,28.580788582028198 46.32426569515776,26.809336201048353 46.00788564168731,22.247450310725753 L 50.678,38.142 C 48.65925873519099,34.756723573296576 47.43036513782742,34.16165560071372 36.598922810072146,37.227057442607496 Z"/><path fill="none" stroke="#1A1917" stroke-width="0.136" stroke-linejoin="round" stroke-linecap="round" d="M 35.019,31.646 C 45.850926359428996,28.580788582028198 46.32426569515776,26.809336201048353 46.00788564168731,22.247450310725753 M 36.599,37.227 C 47.43036513782742,34.16165560071372 48.65925873519099,34.756723573296576 50.67787172175376,38.14222505522219"/></g><g fill="none"><line x1="-10.469" y1="50.08" x2="-9.834" y2="43.415" stroke="#1A1917" stroke-width="2.136" stroke-linejoin="round" stroke-linecap="butt"/><line x1="-10.469" y1="50.08" x2="-9.834" y2="43.415" stroke="#CCC5B8" stroke-width="1.864" stroke-linejoin="round" stroke-linecap="round"/></g></g><g fill="#99948A" stroke="#1A1917" stroke-width="0.136"><g fill="#1A1917" stroke="#1A1917" stroke-width="0.136" stroke-linejoin="round"><polygon points="10.048,5.256 6.884,6.583 5.032,2.17 1.353,3.714 1.353,2.914 5.032,1.37 6.884,5.783 10.048,4.456"/><polygon points="3.204,8.127 0.766,9.15 -1.086,4.737 -2.256,1.948 -3.538,-1.108 -5.225,-5.127 -5.225,-5.927 -3.538,-1.908 -2.256,1.148 -1.086,3.937 0.766,8.35 3.204,7.327"/></g><polygon points="-5.225,-5.927 -2.786,-6.95 0.894,-8.494 4.058,-9.822 5.744,-5.802 7.026,-2.746 8.196,0.043 10.048,4.456 6.884,5.783 5.032,1.37 1.353,2.914 3.204,7.327 0.766,8.35 -1.086,3.937 -2.256,1.148 -3.538,-1.908"/></g><g fill="#99948A" stroke="#1A1917" stroke-width="0.136"><g fill="#1A1917" stroke="#1A1917" stroke-width="0.136" stroke-linejoin="round"><polygon points="-3.653,17.358 -6.826,24.99 -12.747,17.824 -12.747,17.424 -6.826,24.59 -3.653,16.958"/></g><polygon points="-3.653,16.958 -6.826,24.59 -12.747,17.424 -7.798,12.656"/><g fill="#1A1917" stroke="#1A1917" stroke-width="0.136" stroke-linejoin="round"><polygon points="-13.818,8.019 -18.006,11.46 -21.539,7.185 -21.539,6.785 -18.006,11.06 -13.818,7.619"/><polygon points="-10.933,5.649 -13.818,8.019 -17.339,3.734 -17.339,3.334 -13.818,7.619 -10.933,5.249"/><polygon points="-10.041,14.106 -13.258,17.206 -16.051,13.826 -16.051,13.426 -13.258,16.806 -10.041,13.706"/><polygon points="-16.051,13.826 -18.006,11.46 -18.006,11.06 -16.051,13.426"/><polygon points="-12.618,10.988 -16.051,13.826 -16.051,13.426 -12.618,10.588"/><polygon points="-6.661,10.849 -10.041,14.106 -12.29,11.385 -12.29,10.985 -10.041,13.706 -6.661,10.449"/><polygon points="-5.926,3.624 -9.909,6.896 -12.224,4.078 -12.224,3.678 -9.909,6.496 -5.926,3.224"/><polygon points="-12.224,4.078 -14.454,1.364 -14.454,0.964 -12.224,3.678"/><polygon points="-8.129,0.713 -12.224,4.078 -12.224,3.678 -8.129,0.313"/><polygon points="-3.073,7.393 -6.661,10.849 -9.909,6.896 -9.909,6.496 -6.661,10.449 -3.073,6.993"/></g><polygon points="-13.818,7.619 -18.006,11.06 -21.539,6.785 -17.339,3.334"/><polygon points="-17.339,3.334 -14.454,0.964 -10.933,5.249 -13.818,7.619"/><polygon points="-12.618,10.588 -10.041,13.706 -13.258,16.806 -16.051,13.426"/><polygon points="-16.051,13.426 -18.006,11.06 -14.565,8.232 -12.618,10.588"/><polygon points="-8.675,7.998 -6.661,10.449 -10.041,13.706 -12.29,10.985"/><polygon points="-8.129,0.313 -5.926,3.224 -9.909,6.496 -12.224,3.678"/><polygon points="-12.224,3.678 -14.454,0.964 -10.251,-2.49 -8.129,0.313"/><polygon points="-5.926,3.224 -3.073,6.993 -6.661,10.449 -9.909,6.496"/></g><g fill="#99948A" stroke="#1A1917" stroke-width="0.136"><g fill="#1A1917" stroke="#1A1917" stroke-width="0.136" stroke-linejoin="round"><polygon points="6.116,-10.764 -0.97,-7.791 -3.985,-14.977 -3.985,-15.377 -0.97,-8.191 6.116,-11.164"/><polygon points="2.589,-18.958 -2.611,-15.787 -4.678,-19.176 -4.678,-19.576 -2.611,-16.187 2.589,-19.358"/></g><polygon points="6.116,-11.164 -0.97,-8.191 -3.985,-15.377 3.101,-18.35"/><polygon points="0.522,-22.747 2.589,-19.358 -2.611,-16.187 -4.678,-19.576"/></g><g fill="#99948A" stroke="#1A1917" stroke-width="0.136"><g fill="#1A1917" stroke="#1A1917" stroke-width="0.136" stroke-linejoin="round"><polygon points="18.17,-7.601 12.793,-5.977 11.093,-11.602 11.093,-12.002 12.793,-6.377 18.17,-8.001"/></g><polygon points="11.093,-12.002 16.471,-13.626 18.17,-8.001 12.793,-6.377"/><g fill="#1A1917" stroke="#1A1917" stroke-width="0.136" stroke-linejoin="round"><polygon points="17.506,1.104 15.599,6.579 10.966,4.965 10.966,4.565 15.599,6.179 17.506,0.704"/><polygon points="21.389,4.217 20.427,8.233 15.883,7.145 15.883,6.745 20.427,7.833 21.389,3.817"/></g><polygon points="12.873,-0.91 17.506,0.704 15.599,6.179 10.966,4.565"/><polygon points="21.389,3.817 20.427,7.833 15.883,6.745 16.845,2.729"/></g><g fill="#99948A" stroke="#1A1917" stroke-width="0.136"><g fill="#1A1917" stroke="#1A1917" stroke-width="0.136" stroke-linejoin="round"><polygon points="13.215,22.608 8.356,23.269 7.528,17.186 7.528,16.786 8.356,22.869 13.215,22.208"/><polygon points="8.515,14.375 3.902,15.567 2.654,10.738 2.654,10.338 3.902,15.167 8.515,13.975"/><polygon points="15.125,11.253 12.366,16.005 9.223,14.18 9.223,13.78 12.366,15.605 15.125,10.853"/></g><polygon points="13.215,22.208 8.356,22.869 7.528,16.786 12.388,16.125"/><polygon points="2.654,10.338 7.268,9.146 8.515,13.975 3.902,15.167"/><polygon points="11.982,9.028 15.125,10.853 12.366,15.605 9.223,13.78"/></g><g fill="#99948A" stroke="#1A1917" stroke-width="0.136"><g fill="#1A1917" stroke="#1A1917" stroke-width="0.136" stroke-linejoin="round"><polygon points="-22.387,-6.846 -26.432,1.246 -31.568,-1.321 -31.568,-1.721 -26.432,0.846 -22.387,-7.246"/><polygon points="-16.04,-3.674 -19.159,2.567 -25.22,-0.462 -25.22,-0.862 -19.159,2.167 -16.04,-4.074"/></g><polygon points="-27.524,-9.814 -22.387,-7.246 -26.432,0.846 -31.568,-1.721"/><polygon points="-22.101,-7.103 -16.04,-4.074 -19.159,2.167 -25.22,-0.862"/><g fill="#1A1917" stroke="#1A1917" stroke-width="0.136" stroke-linejoin="round"><polygon points="-14.514,-3.828 -19.53,-6.335 -19.53,-6.735 -14.514,-4.228"/><polygon points="-11.775,-9.31 -14.514,-3.828 -14.514,-4.228 -11.775,-9.71"/><polygon points="-14.581,-18.101 -18.637,-14.584 -21.255,-17.604 -21.255,-18.004 -18.637,-14.984 -14.581,-18.501"/></g><polygon points="-14.514,-4.228 -19.53,-6.735 -16.791,-12.217 -11.775,-9.71"/><polygon points="-17.199,-21.52 -14.581,-18.501 -18.637,-14.984 -21.255,-18.004"/></g><g fill="#99948A" stroke="#1A1917" stroke-width="0.136"><g fill="#1A1917" stroke="#1A1917" stroke-width="0.136" stroke-linejoin="round"><polygon points="-21.499,17.765 -23.675,21.807 -29.004,18.939 -29.004,18.539 -23.675,21.407 -21.499,17.365"/><polygon points="-17.251,14.852 -19.193,18.46 -26.601,14.474 -26.601,14.074 -19.193,18.06 -17.251,14.452"/><polygon points="-17.486,19.233 -17.713,22.547 -21.993,22.254 -21.993,21.854 -17.713,22.147 -17.486,18.833"/></g><polygon points="-29.004,18.539 -26.828,14.496 -21.499,17.365 -23.675,21.407"/><polygon points="-26.601,14.074 -24.659,10.465 -17.251,14.452 -19.193,18.06"/><polygon points="-17.486,18.833 -17.713,22.147 -21.993,21.854 -21.766,18.54"/></g><g fill="#99948A" stroke="#1A1917" stroke-width="0.136"><g fill="#1A1917" stroke="#1A1917" stroke-width="0.136" stroke-linejoin="round"><polygon points="12.231,-12.802 8.466,-11.665 7.037,-16.394 7.037,-16.794 8.466,-12.065 12.231,-13.202"/></g><polygon points="12.231,-13.202 8.466,-12.065 7.037,-16.794 10.802,-17.931"/></g><g stroke="#67635C" stroke-width="0.136" stroke-linecap="butt"><line x1="-3.638" y1="39.146" x2="-3.291" y2="41.695"/><line x1="-2.806" y1="35.137" x2="-1.867" y2="42.038"/><line x1="-1.873" y1="31.873" x2="-0.509" y2="41.898"/><line x1="-0.61" y1="31.03" x2="0.849" y2="41.759"/><line x1="0.706" y1="30.577" x2="2.208" y2="41.62"/><line x1="2.058" y1="30.393" x2="3.566" y2="41.48"/><line x1="3.41" y1="30.209" x2="4.924" y2="41.341"/><line x1="4.763" y1="30.025" x2="6.283" y2="41.202"/><line x1="6.115" y1="29.841" x2="7.641" y2="41.062"/><line x1="7.467" y1="29.657" x2="9" y2="40.923"/><line x1="8.819" y1="29.473" x2="10.351" y2="40.736"/><line x1="10.172" y1="29.289" x2="11.678" y2="40.365"/><line x1="11.524" y1="29.106" x2="12.994" y2="39.909"/><line x1="12.876" y1="28.922" x2="14.273" y2="39.191"/><line x1="14.229" y1="28.738" x2="15.553" y2="38.472"/><line x1="15.622" y1="28.854" x2="16.832" y2="37.754"/><line x1="17.039" y1="29.145" x2="18.112" y2="37.036"/><line x1="18.699" y1="31.229" x2="19.392" y2="36.317"/><line x1="20.36" y1="33.313" x2="20.671" y2="35.599"/><g fill="#99948A" stroke="#1A1917" stroke-width="0.136"><g fill="#1A1917" stroke="#1A1917" stroke-width="0.136" stroke-linejoin="round"><polygon points="6.595,31.288 4.578,31.562 4.578,31.322 6.595,31.048"/><polygon points="4.761,32.912 3.538,33.078 3.355,31.729 1.805,31.939 1.603,30.455 1.603,30.215 1.805,31.699 3.355,31.489 3.538,32.838 4.761,32.672"/></g><polygon points="1.603,30.215 3.153,30.004 4.376,29.838 6.394,29.563 6.595,31.048 4.578,31.322 4.761,32.672 3.538,32.838 3.355,31.489 1.805,31.699"/></g></g><g stroke="#67635C" stroke-width="0.136" stroke-linecap="butt"><line x1="-29.808" y1="15.92" x2="-25.121" y2="7.211"/><line x1="-31.365" y1="15.734" x2="-26.009" y2="5.783"/><line x1="-32.666" y1="15.074" x2="-27.195" y2="4.909"/><line x1="-33.967" y1="14.415" x2="-28.381" y2="4.036"/><line x1="-35.268" y1="13.755" x2="-29.567" y2="3.163"/><line x1="-36.569" y1="13.095" x2="-30.753" y2="2.289"/><line x1="-37.87" y1="12.435" x2="-31.939" y2="1.416"/><line x1="-39.171" y1="11.775" x2="-33.126" y2="0.543"/><line x1="-40.472" y1="11.116" x2="-34.312" y2="-0.331"/><line x1="-41.596" y1="10.125" x2="-35.498" y2="-1.204"/><line x1="-42.567" y1="8.853" x2="-36.684" y2="-2.077"/><line x1="-43.092" y1="6.751" x2="-38.025" y2="-2.663"/><line x1="-43.617" y1="4.649" x2="-39.59" y2="-2.834"/><line x1="-44.142" y1="2.547" x2="-41.524" y2="-2.317"/><line x1="-44.667" y1="0.445" x2="-43.459" y2="-1.799"/><g fill="#99948A" stroke="#1A1917" stroke-width="0.136"><g fill="#1A1917" stroke="#1A1917" stroke-width="0.136" stroke-linejoin="round"><polygon points="-29.227,3.413 -29.845,4.252 -30.986,3.412 -31.643,4.304 -32.862,3.406 -34.167,2.446 -34.167,2.206 -32.862,3.166 -31.643,4.064 -30.986,3.172 -29.845,4.012 -29.227,3.173"/></g><polygon points="-32.892,0.474 -31.588,1.435 -30.369,2.333 -29.227,3.173 -29.845,4.012 -30.986,3.172 -31.643,4.064 -32.862,3.166 -34.167,2.206 -33.51,1.314"/></g></g><g stroke="#67635C" stroke-width="0.136" stroke-linecap="butt"><line x1="-30.414" y1="28.374" x2="-33.096" y2="43.021"/><line x1="-29.068" y1="27.473" x2="-32.102" y2="44.046"/><line x1="-27.911" y1="27.606" x2="-30.983" y2="44.384"/><line x1="-26.768" y1="27.815" x2="-29.786" y2="44.299"/><line x1="-25.626" y1="28.024" x2="-28.589" y2="44.215"/><line x1="-24.483" y1="28.233" x2="-27.393" y2="44.13"/><line x1="-23.34" y1="28.443" x2="-26.196" y2="44.045"/><line x1="-22.197" y1="28.652" x2="-24.999" y2="43.961"/><line x1="-21.054" y1="28.861" x2="-23.803" y2="43.876"/><line x1="-19.911" y1="29.07" x2="-22.606" y2="43.791"/><line x1="-18.768" y1="29.279" x2="-21.409" y2="43.706"/><line x1="-17.625" y1="29.489" x2="-20.212" y2="43.622"/><line x1="-16.482" y1="29.698" x2="-19.016" y2="43.537"/><line x1="-15.34" y1="29.907" x2="-17.819" y2="43.452"/><line x1="-14.209" y1="30.181" x2="-16.58" y2="43.138"/><line x1="-13.215" y1="31.206" x2="-15.234" y2="42.237"/><g fill="#99948A" stroke="#1A1917" stroke-width="0.136"><g fill="#1A1917" stroke="#1A1917" stroke-width="0.136" stroke-linejoin="round"><polygon points="-21.308,28.814 -21.672,30.801 -26.384,29.938 -26.384,29.698 -21.672,30.561 -21.308,28.574"/></g><polygon points="-26.02,27.712 -21.308,28.574 -21.672,30.561 -26.384,29.698"/></g></g><g stroke="#67635C" stroke-width="0.136" stroke-linecap="butt"><line x1="27.194" y1="66.595" x2="27.146" y2="65.153"/><line x1="26.063" y1="67.835" x2="25.92" y2="63.51"/><line x1="24.901" y1="68.121" x2="24.693" y2="61.867"/><line x1="23.73" y1="68.16" x2="23.466" y2="60.224"/><line x1="22.559" y1="68.199" x2="22.24" y2="58.581"/><line x1="21.389" y1="68.238" x2="21.013" y2="56.938"/><line x1="20.218" y1="68.277" x2="19.786" y2="55.295"/><line x1="19.047" y1="68.316" x2="18.56" y2="53.652"/><line x1="17.876" y1="68.355" x2="17.333" y2="52.009"/><line x1="16.706" y1="68.394" x2="16.107" y2="50.365"/><line x1="15.535" y1="68.433" x2="14.905" y2="49.489"/><line x1="14.364" y1="68.472" x2="13.713" y2="48.867"/><line x1="13.193" y1="68.51" x2="12.52" y2="48.244"/><line x1="12.023" y1="68.549" x2="11.348" y2="48.258"/><line x1="10.852" y1="68.588" x2="10.18" y2="48.377"/><line x1="9.681" y1="68.627" x2="9.012" y2="48.497"/><line x1="8.51" y1="68.666" x2="7.844" y2="48.617"/><line x1="7.34" y1="68.705" x2="6.676" y2="48.737"/><line x1="6.169" y1="68.744" x2="5.508" y2="48.857"/><line x1="4.998" y1="68.783" x2="4.34" y2="48.976"/><line x1="3.827" y1="68.822" x2="3.172" y2="49.096"/><line x1="2.657" y1="68.861" x2="2.004" y2="49.216"/><line x1="1.486" y1="68.899" x2="0.836" y2="49.336"/><line x1="0.315" y1="68.938" x2="-0.332" y2="49.455"/><line x1="-0.856" y1="68.977" x2="-1.5" y2="49.575"/><line x1="-2.035" y1="68.755" x2="-2.668" y2="49.695"/><line x1="-3.228" y1="68.133" x2="-3.82" y2="50.317"/><line x1="-4.42" y1="67.511" x2="-4.95" y2="51.557"/><g fill="#99948A" stroke="#1A1917" stroke-width="0.136"><g fill="#1A1917" stroke="#1A1917" stroke-width="0.136" stroke-linejoin="round"><polygon points="27.534,68.034 26.173,68.079 24.676,68.129 23.071,68.182 23.02,66.64 22.979,65.393 22.979,65.153 23.02,66.4 23.071,67.942 24.676,67.889 26.173,67.839 27.534,67.794"/></g><polygon points="27.534,67.794 26.173,67.839 24.676,67.889 23.071,67.942 23.02,66.4 22.979,65.153 24.583,65.1 26.081,65.05 26.122,66.297 27.483,66.252"/></g></g><g stroke="#67635C" stroke-width="0.136" stroke-linecap="butt"><line x1="-42.799" y1="46.433" x2="-35.894" y2="43.959"/><line x1="-43.621" y1="45.23" x2="-35.223" y2="42.221"/><line x1="-44.332" y1="43.986" x2="-34.973" y2="40.634"/><line x1="-44.807" y1="42.659" x2="-34.723" y2="39.046"/><line x1="-45.283" y1="41.332" x2="-34.473" y2="37.459"/><line x1="-45.759" y1="40.004" x2="-34.222" y2="35.871"/><line x1="-46.234" y1="38.677" x2="-33.972" y2="34.284"/><line x1="-46.71" y1="37.349" x2="-33.722" y2="32.696"/><line x1="-47.185" y1="36.022" x2="-33.472" y2="31.109"/><line x1="-47.661" y1="34.694" x2="-33.222" y2="29.521"/><line x1="-48.136" y1="33.367" x2="-33.299" y2="28.051"/><line x1="-48.612" y1="32.039" x2="-34.014" y2="26.81"/><line x1="-49.087" y1="30.712" x2="-34.869" y2="25.618"/><line x1="-49.563" y1="29.384" x2="-36.6" y2="24.74"/><line x1="-50.039" y1="28.057" x2="-38.33" y2="23.862"/><line x1="-50.514" y1="26.729" x2="-40.061" y2="22.985"/><line x1="-50.99" y1="25.402" x2="-41.792" y2="22.107"/><line x1="-51.465" y1="24.075" x2="-43.523" y2="21.229"/><line x1="-51.941" y1="22.747" x2="-45.254" y2="20.351"/><line x1="-52.416" y1="21.42" x2="-46.985" y2="19.474"/><line x1="-52.802" y1="20.06" x2="-48.716" y2="18.596"/><line x1="-53.175" y1="18.696" x2="-50.58" y2="17.766"/><line x1="-52.124" y1="32.396" x2="-71.655" y2="39.393"/><line x1="-50.321" y1="33.2" x2="-72.305" y2="41.076"/><line x1="-49.86" y1="34.485" x2="-71.951" y2="42.399"/><line x1="-49.4" y1="35.77" x2="-71.597" y2="43.722"/><line x1="-48.939" y1="37.056" x2="-71.242" y2="45.046"/><line x1="-48.479" y1="38.341" x2="-70.888" y2="46.369"/><line x1="-48.018" y1="39.626" x2="-70.534" y2="47.692"/><line x1="-47.558" y1="40.911" x2="-70.18" y2="49.015"/><line x1="-47.098" y1="42.196" x2="-69.689" y2="50.29"/><line x1="-46.637" y1="43.481" x2="-68.506" y2="51.316"/><line x1="-46.177" y1="44.767" x2="-65.547" y2="51.706"/><line x1="-45.716" y1="46.052" x2="-62.311" y2="51.997"/><line x1="-46.021" y1="47.611" x2="-59.074" y2="52.287"/><line x1="-52.648" y1="28.971" x2="-55.764" y2="20.275"/><line x1="-53.847" y1="30.161" x2="-57.379" y2="20.304"/><line x1="-55.287" y1="30.679" x2="-58.755" y2="20.998"/><line x1="-56.727" y1="31.196" x2="-60.132" y2="21.693"/><line x1="-58.168" y1="31.712" x2="-61.508" y2="22.388"/><line x1="-59.608" y1="32.228" x2="-62.885" y2="23.082"/><line x1="-61.049" y1="32.744" x2="-64.261" y2="23.777"/><line x1="-62.489" y1="33.26" x2="-65.638" y2="24.472"/><line x1="-63.93" y1="33.776" x2="-67.014" y2="25.166"/><line x1="-65.37" y1="34.292" x2="-68.391" y2="25.861"/><line x1="-66.811" y1="34.808" x2="-69.767" y2="26.556"/><line x1="-68.251" y1="35.324" x2="-71.144" y2="27.25"/><line x1="-69.692" y1="35.84" x2="-72.52" y2="27.945"/><line x1="-71.132" y1="36.356" x2="-73.835" y2="28.812"/><line x1="-72.75" y1="36.378" x2="-75.034" y2="30.002"/><g fill="#99948A" stroke="#1A1917" stroke-width="0.136"><g fill="#1A1917" stroke="#1A1917" stroke-width="0.136" stroke-linejoin="round"><polygon points="-64.449,38.572 -65.54,38.963 -67,39.486 -68.685,40.09 -69.135,38.835 -69.135,38.595 -68.685,39.85 -67,39.246 -65.54,38.723 -64.449,38.332"/><polygon points="-67.45,38.231 -67.79,37.283 -67.79,37.043 -67.45,37.991"/></g><polygon points="-67.79,37.043 -66.329,36.52 -65.238,36.129 -64.898,37.077 -64.449,38.332 -65.54,38.723 -67,39.246 -68.685,39.85 -69.135,38.595 -67.45,37.991"/></g></g><g stroke="#67635C" stroke-width="0.136" stroke-linecap="butt"><line x1="-27.284" y1="72.301" x2="-16.173" y2="69.855"/><line x1="-28.422" y1="71.092" x2="-15.403" y2="68.225"/><line x1="-28.743" y1="69.703" x2="-15.424" y2="66.77"/><line x1="-29.049" y1="68.31" x2="-15.446" y2="65.315"/><line x1="-29.356" y1="66.918" x2="-15.467" y2="63.86"/><line x1="-29.663" y1="65.525" x2="-15.488" y2="62.404"/><line x1="-29.969" y1="64.133" x2="-15.51" y2="60.949"/><line x1="-30.276" y1="62.74" x2="-15.531" y2="59.494"/><line x1="-30.582" y1="61.348" x2="-15.553" y2="58.039"/><line x1="-30.889" y1="59.956" x2="-15.574" y2="56.584"/><line x1="-31.195" y1="58.563" x2="-15.595" y2="55.128"/><line x1="-31.502" y1="57.171" x2="-15.617" y2="53.673"/><line x1="-31.809" y1="55.778" x2="-16.092" y2="52.318"/><line x1="-32.115" y1="54.386" x2="-17.229" y2="51.108"/><line x1="-31.39" y1="52.766" x2="-26.044" y2="51.589"/><line x1="-30.926" y1="72.386" x2="-34.99" y2="53.93"/><line x1="-32.007" y1="74.071" x2="-36.647" y2="52.998"/><line x1="-33.392" y1="74.376" x2="-37.996" y2="53.466"/><line x1="-34.777" y1="74.681" x2="-39.342" y2="53.948"/><line x1="-36.163" y1="74.986" x2="-40.688" y2="54.431"/><line x1="-37.548" y1="75.291" x2="-42.034" y2="54.913"/><line x1="-38.933" y1="75.596" x2="-43.381" y2="55.395"/><line x1="-40.318" y1="75.901" x2="-44.727" y2="55.877"/><line x1="-41.703" y1="76.206" x2="-46.073" y2="56.36"/><line x1="-43.088" y1="76.511" x2="-47.419" y2="56.842"/><line x1="-44.473" y1="76.816" x2="-48.765" y2="57.324"/><line x1="-45.858" y1="77.121" x2="-50.111" y2="57.806"/><line x1="-47.243" y1="77.426" x2="-51.457" y2="58.289"/><line x1="-48.841" y1="76.766" x2="-52.803" y2="58.771"/><line x1="-51.579" y1="70.925" x2="-53.881" y2="60.471"/></g><g stroke="#67635C" stroke-width="0.136" stroke-linecap="butt"><line x1="-92.67" y1="-10.444" x2="-91.645" y2="2.038"/><line x1="-91.05" y1="-11.299" x2="-89.907" y2="2.602"/><line x1="-89.429" y1="-12.154" x2="-88.19" y2="2.922"/><line x1="-87.753" y1="-12.324" x2="-86.511" y2="2.784"/><line x1="-86.073" y1="-12.462" x2="-84.832" y2="2.646"/><line x1="-84.394" y1="-12.6" x2="-83.152" y2="2.508"/><line x1="-82.714" y1="-12.738" x2="-81.473" y2="2.37"/><line x1="-81.035" y1="-12.876" x2="-79.793" y2="2.232"/><line x1="-79.355" y1="-13.014" x2="-78.114" y2="2.094"/><line x1="-77.676" y1="-13.152" x2="-76.434" y2="1.956"/><line x1="-75.996" y1="-13.29" x2="-74.755" y2="1.818"/><line x1="-74.317" y1="-13.428" x2="-73.075" y2="1.68"/><line x1="-72.638" y1="-13.566" x2="-71.396" y2="1.541"/><line x1="-70.958" y1="-13.704" x2="-69.717" y2="1.403"/><line x1="-69.279" y1="-13.842" x2="-68.037" y2="1.265"/><line x1="-67.599" y1="-13.98" x2="-66.358" y2="1.127"/><line x1="-65.92" y1="-14.118" x2="-64.678" y2="0.989"/><line x1="-64.24" y1="-14.256" x2="-62.999" y2="0.851"/><line x1="-62.561" y1="-14.394" x2="-61.319" y2="0.713"/><line x1="-60.851" y1="-14.161" x2="-59.64" y2="0.575"/><line x1="-59.114" y1="-13.601" x2="-57.961" y2="0.434"/><line x1="-56.914" y1="-7.4" x2="-56.282" y2="0.292"/><line x1="-75.867" y1="27.394" x2="-78.745" y2="5.353"/><line x1="-77.32" y1="26.892" x2="-80.273" y2="4.278"/><line x1="-78.87" y1="25.646" x2="-81.646" y2="4.391"/><line x1="-80.431" y1="24.32" x2="-83.019" y2="4.503"/><line x1="-81.991" y1="22.994" x2="-84.391" y2="4.616"/><line x1="-83.552" y1="21.668" x2="-85.764" y2="4.729"/><line x1="-85.113" y1="20.342" x2="-87.137" y2="4.842"/><line x1="-86.673" y1="19.016" x2="-88.51" y2="4.955"/><line x1="-88.234" y1="17.69" x2="-89.882" y2="5.067"/><line x1="-89.795" y1="16.364" x2="-91.237" y2="5.321"/><line x1="-91.416" y1="14.573" x2="-92.401" y2="7.033"/><line x1="-75.353" y1="5.412" x2="-72.897" y2="24.222"/><line x1="-74.202" y1="3.914" x2="-71.465" y2="24.88"/><line x1="-72.888" y1="3.671" x2="-70.165" y2="24.516"/><line x1="-71.555" y1="3.561" x2="-68.902" y2="23.879"/><line x1="-70.223" y1="3.452" x2="-67.639" y2="23.241"/><line x1="-68.891" y1="3.342" x2="-66.375" y2="22.604"/><line x1="-67.558" y1="3.233" x2="-65.112" y2="21.966"/><line x1="-66.226" y1="3.123" x2="-63.849" y2="21.329"/><line x1="-64.894" y1="3.014" x2="-62.585" y2="20.691"/><line x1="-63.561" y1="2.904" x2="-61.322" y2="20.054"/><line x1="-62.229" y1="2.795" x2="-60.059" y2="19.416"/><line x1="-60.897" y1="2.685" x2="-58.795" y2="18.778"/><line x1="-59.564" y1="2.576" x2="-57.532" y2="18.141"/><line x1="-58.232" y1="2.466" x2="-56.269" y2="17.503"/><line x1="-56.887" y1="2.458" x2="-55.005" y2="16.866"/><line x1="-55.454" y1="3.116" x2="-53.753" y2="16.145"/><line x1="-53.437" y1="8.248" x2="-52.602" y2="14.647"/><g fill="#99948A" stroke="#1A1917" stroke-width="0.136"><g fill="#1A1917" stroke="#1A1917" stroke-width="0.136" stroke-linejoin="round"><polygon points="-65.273,22.047 -66.972,22.905 -68.434,23.643 -69.086,22.352 -69.714,21.106 -69.714,20.866 -69.086,22.112 -68.434,23.403 -66.972,22.665 -65.273,21.807"/><polygon points="-64.633,20.104 -65.924,20.756 -65.924,20.516 -64.633,19.864"/></g><polygon points="-65.273,21.807 -66.972,22.665 -68.434,23.403 -69.086,22.112 -69.714,20.866 -68.252,20.128 -66.553,19.271 -65.261,18.619 -64.633,19.864 -65.924,20.516"/></g></g><g stroke="#67635C" stroke-width="0.136" stroke-linecap="butt"><line x1="-36.665" y1="77.951" x2="-48.657" y2="80.592"/><line x1="-35.468" y1="79.301" x2="-49.124" y2="82.307"/><line x1="-35.13" y1="80.839" x2="-49.085" y2="83.912"/><line x1="-34.791" y1="82.378" x2="-49.047" y2="85.517"/><line x1="-34.452" y1="83.916" x2="-49.009" y2="87.121"/><line x1="-34.113" y1="85.455" x2="-48.971" y2="88.726"/><line x1="-33.775" y1="86.993" x2="-48.933" y2="90.331"/><line x1="-33.436" y1="88.532" x2="-48.776" y2="91.909"/><line x1="-33.097" y1="90.07" x2="-48.186" y2="93.393"/><line x1="-32.758" y1="91.609" x2="-47.145" y2="94.776"/><line x1="-32.42" y1="93.147" x2="-45.917" y2="96.119"/><line x1="-32.081" y1="94.686" x2="-44.689" y2="97.462"/><line x1="-31.742" y1="96.224" x2="-43.461" y2="98.804"/><line x1="-31.813" y1="97.853" x2="-42.233" y2="100.147"/><line x1="-33.721" y1="99.886" x2="-40.811" y2="101.447"/><line x1="-32.959" y1="77.661" x2="-28.752" y2="96.764"/><line x1="-31.669" y1="76.045" x2="-26.96" y2="97.433"/><line x1="-30.099" y1="75.699" x2="-25.436" y2="96.88"/><line x1="-28.53" y1="75.353" x2="-23.912" y2="96.327"/><line x1="-26.96" y1="75.008" x2="-22.388" y2="95.774"/><line x1="-25.391" y1="74.662" x2="-20.864" y2="95.221"/><line x1="-23.821" y1="74.317" x2="-19.34" y2="94.669"/><line x1="-22.252" y1="73.971" x2="-17.816" y2="94.116"/><line x1="-20.682" y1="73.625" x2="-16.292" y2="93.563"/><line x1="-19.112" y1="73.28" x2="-14.768" y2="93.01"/><line x1="-17.543" y1="72.934" x2="-13.316" y2="92.133"/><line x1="-15.734" y1="73.677" x2="-12.142" y2="89.988"/><g fill="#99948A" stroke="#1A1917" stroke-width="0.136"><g fill="#1A1917" stroke="#1A1917" stroke-width="0.136" stroke-linejoin="round"><polygon points="-34.383,84.232 -35.862,84.558 -36.298,82.578 -37.142,82.764 -37.358,81.782 -37.762,79.95 -37.762,79.71 -37.358,81.542 -37.142,82.524 -36.298,82.338 -35.862,84.318 -34.383,83.992"/></g><polygon points="-35.035,81.03 -34.819,82.012 -34.383,83.992 -35.862,84.318 -36.298,82.338 -37.142,82.524 -37.358,81.542 -37.762,79.71 -36.918,79.524 -36.515,81.356"/></g></g><g stroke="#67635C" stroke-width="0.136" stroke-linecap="butt"><line x1="-77.013" y1="34.001" x2="-76.919" y2="31.57"/><line x1="-78.468" y1="34.124" x2="-78.27" y2="28.962"/><line x1="-79.923" y1="34.247" x2="-79.667" y2="27.593"/><line x1="-81.373" y1="34.239" x2="-81.072" y2="26.4"/><line x1="-82.822" y1="34.183" x2="-82.477" y2="25.207"/><line x1="-84.27" y1="34.127" x2="-83.881" y2="24.013"/><line x1="-85.718" y1="34.072" x2="-85.286" y2="22.82"/><line x1="-87.167" y1="34.016" x2="-86.691" y2="21.626"/><line x1="-88.615" y1="33.96" x2="-88.095" y2="20.433"/><line x1="-90.063" y1="33.905" x2="-89.5" y2="19.239"/><line x1="-91.512" y1="33.849" x2="-90.904" y2="18.046"/><line x1="-92.96" y1="33.793" x2="-92.327" y2="17.333"/><line x1="-94.408" y1="33.738" x2="-93.779" y2="17.369"/><line x1="-95.857" y1="33.682" x2="-95.231" y2="17.405"/><line x1="-97.305" y1="33.626" x2="-96.701" y2="17.921"/><line x1="-98.753" y1="33.571" x2="-98.185" y2="18.783"/><line x1="-100.202" y1="33.515" x2="-99.669" y2="19.644"/><line x1="-101.65" y1="33.459" x2="-101.152" y2="20.506"/><line x1="-103.098" y1="33.404" x2="-102.636" y2="21.367"/><line x1="-104.547" y1="33.348" x2="-104.119" y2="22.229"/><line x1="-105.995" y1="33.292" x2="-105.603" y2="23.091"/><line x1="-107.443" y1="33.237" x2="-107.086" y2="23.952"/><line x1="-108.892" y1="33.181" x2="-108.57" y2="24.814"/><line x1="-110.34" y1="33.126" x2="-110.054" y2="25.676"/><line x1="-111.788" y1="33.07" x2="-111.537" y2="26.537"/><line x1="-113.237" y1="33.014" x2="-113.021" y2="27.399"/><line x1="-114.682" y1="32.893" x2="-114.504" y2="28.26"/><line x1="-116.128" y1="32.757" x2="-115.989" y2="29.145"/><line x1="-117.573" y1="32.62" x2="-117.479" y2="30.178"/><line x1="-97.338" y1="37.528" x2="-95.366" y2="63.964"/><line x1="-95.989" y1="35.715" x2="-93.89" y2="63.853"/><line x1="-94.503" y1="35.736" x2="-92.414" y2="63.743"/><line x1="-93.015" y1="35.793" x2="-90.94" y2="63.608"/><line x1="-91.527" y1="35.85" x2="-89.509" y2="62.902"/><line x1="-90.039" y1="35.907" x2="-88.082" y2="62.14"/><line x1="-88.551" y1="35.964" x2="-86.663" y2="61.263"/><line x1="-87.062" y1="36.021" x2="-85.245" y2="60.386"/><line x1="-85.574" y1="36.079" x2="-83.826" y2="59.508"/><line x1="-84.086" y1="36.136" x2="-82.408" y2="58.631"/><line x1="-82.598" y1="36.193" x2="-80.99" y2="57.754"/><line x1="-81.11" y1="36.25" x2="-79.571" y2="56.876"/><line x1="-79.621" y1="36.307" x2="-78.153" y2="55.999"/><line x1="-78.133" y1="36.365" x2="-76.734" y2="55.122"/><line x1="-76.59" y1="37.155" x2="-75.316" y2="54.244"/><line x1="-74.983" y1="38.803" x2="-73.897" y2="53.367"/><line x1="-72.926" y1="46.49" x2="-72.55" y2="51.529"/><line x1="-108.812" y1="64.118" x2="-98.96" y2="63.384"/><line x1="-109.864" y1="62.501" x2="-98.419" y2="61.647"/><line x1="-110.486" y1="60.851" x2="-98.413" y2="59.95"/><line x1="-110.913" y1="59.186" x2="-98.538" y2="58.263"/><line x1="-111.34" y1="57.522" x2="-98.664" y2="56.576"/><line x1="-111.767" y1="55.858" x2="-98.79" y2="54.89"/><line x1="-112.194" y1="54.193" x2="-98.916" y2="53.203"/><line x1="-112.621" y1="52.529" x2="-99.042" y2="51.516"/><line x1="-113.049" y1="50.864" x2="-99.168" y2="49.829"/><line x1="-113.476" y1="49.2" x2="-99.293" y2="48.142"/><line x1="-113.903" y1="47.536" x2="-99.419" y2="46.455"/><line x1="-114.33" y1="45.871" x2="-99.545" y2="44.768"/><line x1="-114.757" y1="44.207" x2="-99.671" y2="43.082"/><line x1="-115.184" y1="42.543" x2="-99.797" y2="41.395"/><line x1="-115.611" y1="40.878" x2="-99.923" y2="39.708"/><line x1="-116.038" y1="39.214" x2="-100.246" y2="38.036"/><line x1="-116.273" y1="37.535" x2="-101.298" y2="36.418"/><line x1="-115.732" y1="35.798" x2="-107.958" y2="35.219"/></g><g stroke="#67635C" stroke-width="0.136" stroke-linecap="butt"><line x1="-82.101" y1="86.527" x2="-81.218" y2="102.032"/><line x1="-80.823" y1="85.676" x2="-79.873" y2="102.367"/><line x1="-79.542" y1="84.9" x2="-78.534" y2="102.606"/><line x1="-78.221" y1="84.825" x2="-77.234" y2="102.157"/><line x1="-76.899" y1="84.75" x2="-75.934" y2="101.708"/><line x1="-75.578" y1="84.675" x2="-74.634" y2="101.259"/><line x1="-74.257" y1="84.599" x2="-73.334" y2="100.81"/><line x1="-72.935" y1="84.524" x2="-72.034" y2="100.361"/><line x1="-71.614" y1="84.449" x2="-70.734" y2="99.912"/><line x1="-70.293" y1="84.374" x2="-69.434" y2="99.463"/><line x1="-68.971" y1="84.299" x2="-68.134" y2="99.014"/><line x1="-67.65" y1="84.223" x2="-66.833" y2="98.565"/><line x1="-66.329" y1="84.148" x2="-65.533" y2="98.116"/><line x1="-65.007" y1="84.073" x2="-64.233" y2="97.667"/><line x1="-63.686" y1="83.998" x2="-62.933" y2="97.218"/><line x1="-62.365" y1="83.922" x2="-61.633" y2="96.769"/><line x1="-61.043" y1="83.847" x2="-60.333" y2="96.32"/><line x1="-59.722" y1="83.772" x2="-59.033" y2="95.871"/><line x1="-58.401" y1="83.697" x2="-57.733" y2="95.423"/><line x1="-57.079" y1="83.622" x2="-56.433" y2="94.974"/><line x1="-55.758" y1="83.546" x2="-55.133" y2="94.525"/><line x1="-54.437" y1="83.471" x2="-53.835" y2="94.036"/><line x1="-53.095" y1="83.756" x2="-52.558" y2="93.185"/><line x1="-51.75" y1="84.091" x2="-51.281" y2="92.334"/><line x1="-81.373" y1="82.279" x2="-51.166" y2="80.559"/><line x1="-83.082" y1="80.932" x2="-51.283" y2="79.122"/><line x1="-83.164" y1="79.492" x2="-51.668" y2="77.699"/><line x1="-83.246" y1="78.052" x2="-52.079" y2="76.278"/><line x1="-83.328" y1="76.612" x2="-52.5" y2="74.857"/><line x1="-83.41" y1="75.172" x2="-52.921" y2="73.437"/><line x1="-83.492" y1="73.732" x2="-53.342" y2="72.016"/><line x1="-83.574" y1="72.292" x2="-53.763" y2="70.595"/><line x1="-83.656" y1="70.852" x2="-54.184" y2="69.175"/><line x1="-83.46" y1="69.397" x2="-54.604" y2="67.754"/><line x1="-82.573" y1="67.902" x2="-55.025" y2="66.334"/><line x1="-80.549" y1="66.342" x2="-55.446" y2="64.913"/><line x1="-77.976" y1="64.751" x2="-55.867" y2="63.492"/><line x1="-75.404" y1="63.16" x2="-56.288" y2="62.072"/><line x1="-72.832" y1="61.569" x2="-57.42" y2="60.692"/><line x1="-70.259" y1="59.978" x2="-62.566" y2="59.54"/><g fill="#99948A" stroke="#1A1917" stroke-width="0.136"><g fill="#1A1917" stroke="#1A1917" stroke-width="0.136" stroke-linejoin="round"><polygon points="-56.875,81.607 -58.069,81.675 -59.636,81.764 -59.687,80.855 -59.763,79.524 -59.763,79.284 -59.687,80.615 -59.636,81.524 -58.069,81.435 -56.875,81.367"/><polygon points="-55.073,80.592 -56.927,80.698 -56.927,80.458 -55.073,80.352"/></g><polygon points="-56.875,81.367 -58.069,81.435 -59.636,81.524 -59.687,80.615 -59.763,79.284 -58.196,79.195 -57.003,79.127 -55.149,79.021 -55.073,80.352 -56.927,80.458"/></g></g><g id="labels" style="font: 2px IM Fell Great Primer, serif" fill="#1A1917"><g id="LILDIER WHARF" transform="translate(-2.917 3.148)"><text text-anchor="middle" dominant-baseline="middle" textLength="33.5376610095689" stroke="#CCC5B8" stroke-width="0.543">LILDIER WHARF</text><text text-anchor="middle" dominant-baseline="middle" textLength="33.5376610095689">LILDIER WHARF</text></g></g><g id="markers" pinned="true"/></g><g id="scaleBar" transform="translate(0.849 77.362) scale(0.085 0.085)" stroke="#1A1917" stroke-width="1.6" stroke-linejoin="miter" stroke-linecap="butt" style="font: 21px IM Fell Great Primer, serif" fill="none"><path d="M 0,-12 L 0,0 L 294.59,0 L 294.59,-12 M 73.647,0 L 73.647,-6 M 147.295,0 L 147.295,-12 M 220.942,0 L 220.942,-6"/><text text-anchor="middle" fill="#1A1917" stroke="none" x="0" y="-18.3">0</text><text text-anchor="middle" fill="#1A1917" stroke="none" x="147.295" y="-18.3">50</text><text text-anchor="middle" fill="#1A1917" stroke="none" x="294.59" y="-18.3">100m</text></g><g id="compass" transform="translate(77.817 78.21) scale(0.085 0.085) translate(-90 -90) rotate(0 0 0)"><circle cx="0" cy="0" r="70.211" stroke="#1A1917" stroke-width="1.6" fill="none"/><polygon points="53.371,53.371 0,6.867 0,0" fill="#1A1917"/><polygon points="0,6.867 -53.371,53.371 0,0" fill="#99948A"/><polygon points="-53.371,53.371 -6.867,0 0,0" fill="#1A1917"/><polygon points="-6.867,0 -53.371,-53.371 0,0" fill="#99948A"/><polygon points="-53.371,-53.371 0,-6.867 0,0" fill="#1A1917"/><polygon points="0,-6.867 53.371,-53.371 0,0" fill="#99948A"/><polygon points="53.371,-53.371 6.867,0 0,0" fill="#1A1917"/><polygon points="6.867,0 53.371,53.371 0,0" fill="#99948A"/><polygon points="53.371,53.371 0,6.867 -53.371,53.371 -6.867,0 -53.371,-53.371 0,-6.867 53.371,-53.371 6.867,0" fill="none" stroke="#1A1917" stroke-width="1.6" stroke-linejoin="round"/><polygon points="80,0 13.557,13.557 0,0" fill="#1A1917"/><polygon points="13.557,13.557 0,80 0,0" fill="#99948A"/><polygon points="0,80 -13.557,13.557 0,0" fill="#1A1917"/><polygon points="-13.557,13.557 -80,0 0,0" fill="#99948A"/><polygon points="-80,0 -13.557,-13.557 0,0" fill="#1A1917"/><polygon points="-13.557,-13.557 0,-80 0,0" fill="#99948A"/><polygon points="0,-80 13.557,-13.557 0,0" fill="#1A1917"/><polygon points="13.557,-13.557 80,0 0,0" fill="#99948A"/><polygon points="80,0 13.557,13.557 0,80 -13.557,13.557 -80,0 -13.557,-13.557 0,-80 13.557,-13.557" fill="none" stroke="#1A1917" stroke-width="1.6" stroke-linejoin="round"/><text text-anchor="middle" dominant-baseline="baseline" style="font: 27px IM Fell Great Primer, serif" fill="#1A1917" x="0" y="-85.4" transform="rotate(0 0 0)">N</text></g><g id="cityName" style="font: 5px IM Fell Great Primer, serif" fill="#1A1917" transform="translate(38.908 0.849)"><text text-anchor="middle" dominant-baseline="hanging" stroke="#CCC5B8" stroke-width="0.543">Lildier Wharf</text><text text-anchor="middle" dominant-baseline="hanging">Lildier Wharf</text></g></svg>