<?xml version="1.0" encoding="UTF-8" standalone="no"?><svg width="104.733" height="96.507" xmlns="http://www.w3.org/2000/svg"><style><![CDATA[@import url("https://fonts.googleapis.com/css?family=IM+Fell+Great+Primer");]]></style><rect x="0" y="0" width="104.733" height="96.507" id="background" fill="#CCC5B8"/><g id="map" transform="translate(58.297 54.542)"><g fill="none"><polyline points="3.612,22.689 8.282,34.621 9.752,41.011 10.566,44.348 11.213,46.761 11.856,48.96 12.497,50.946 13.188,52.954 13.93,54.985 14.724,57.04 15.569,59.117 16.252,61.242 16.775,63.413 17.136,65.632 17.336,67.898 17.375,70.211 17.253,72.571 16.969,74.978 16.524,77.432 15.929,79.79 15.184,82.052 14.288,84.219 13.241,86.289 12.044,88.263 10.697,90.142 9.199,91.924 7.55,93.611 6.045,95.332 4.683,97.089 3.464,98.882 2.389,100.709 1.457,102.573 0.668,104.471 0.023,106.405 -0.48,108.374 -0.499,110.566 -0.035,112.98 0.913,115.618 2.343,118.478 4.677,122.031 7.914,126.275 13.316,132.618 24.665,145.281" stroke="#67635C" stroke-width="2.182" stroke-linejoin="round" stroke-linecap="butt"/><polyline points="-4.397,11.048 3.612,22.689 8.282,34.621 9.752,41.011 10.566,44.348 11.213,46.761 11.856,48.96 12.497,50.946 13.188,52.954 13.93,54.985 14.724,57.04 15.569,59.117 16.252,61.242 16.775,63.413 17.136,65.632 17.336,67.898 17.375,70.211 17.253,72.571 16.969,74.978 16.524,77.432 15.929,79.79 15.184,82.052 14.288,84.219 13.241,86.289 12.044,88.263 10.697,90.142 9.199,91.924 7.55,93.611 6.045,95.332 4.683,97.089 3.464,98.882 2.389,100.709 1.457,102.573 0.668,104.471 0.023,106.405 -0.48,108.374 -0.499,110.566 -0.035,112.98 0.913,115.618 2.343,118.478 4.677,122.031 7.914,126.275 13.316,132.618 24.665,145.281" stroke="#CCC5B8" stroke-width="1.818" stroke-linejoin="round" stroke-linecap="round"/></g><g fill="none"><polyline points="12.955,-15.824 26.173,-14.688 38.212,-3.072 43.72,-2.905 46.595,-3.054 48.674,-3.463 50.569,-4.114 52.279,-5.007 54.009,-6.135 55.758,-7.498 57.526,-9.097 59.314,-10.931 61.128,-12.828 62.968,-14.787 64.834,-16.807 66.726,-18.89 68.644,-21.035 70.587,-23.241 72.557,-25.51 74.552,-27.841 76.517,-30.084 78.45,-32.238 80.352,-34.304 82.223,-36.281 84.063,-38.171 85.872,-39.972 87.65,-41.684 89.396,-43.309 91.002,-45.133 92.467,-47.159 93.79,-49.384 94.973,-51.81 96.014,-54.437 96.915,-57.264 97.675,-60.292 98.293,-63.52 99.322,-66.646 100.762,-69.671 102.612,-72.593 104.872,-75.415 108.03,-78.436 112.086,-81.658 118.504,-85.985 131.672,-94.134" stroke="#67635C" stroke-width="2.182" stroke-linejoin="round" stroke-linecap="butt"/><polyline points="2.685,-7.577 12.955,-15.824 26.173,-14.688 38.212,-3.072 43.72,-2.905 46.595,-3.054 48.674,-3.463 50.569,-4.114 52.279,-5.007 54.009,-6.135 55.758,-7.498 57.526,-9.097 59.314,-10.931 61.128,-12.828 62.968,-14.787 64.834,-16.807 66.726,-18.89 68.644,-21.035 70.587,-23.241 72.557,-25.51 74.552,-27.841 76.517,-30.084 78.45,-32.238 80.352,-34.304 82.223,-36.281 84.063,-38.171 85.872,-39.972 87.65,-41.684 89.396,-43.309 91.002,-45.133 92.467,-47.159 93.79,-49.384 94.973,-51.81 96.014,-54.437 96.915,-57.264 97.675,-60.292 98.293,-63.52 99.322,-66.646 100.762,-69.671 102.612,-72.593 104.872,-75.415 108.03,-78.436 112.086,-81.658 118.504,-85.985 131.672,-94.134" stroke="#CCC5B8" stroke-width="1.818" stroke-linejoin="round" stroke-linecap="round"/></g><g fill="none"><polyline points="-21.338,-4.681 -35.606,-3.976 -48.581,-6.581 -56.492,-7.061 -60.897,-7.436 -64.431,-7.866 -67.975,-8.406 -71.528,-9.054 -75.384,-9.829 -79.542,-10.73 -84.001,-11.758 -88.764,-12.913 -93.577,-13.512 -98.441,-13.558 -103.355,-13.048 -108.321,-11.984 -113.983,-9.955 -120.342,-6.961 -129.336,-1.772 -146.78,9.307" stroke="#67635C" stroke-width="2.182" stroke-linejoin="round" stroke-linecap="butt"/><polyline points="-7.209,-3.556 -21.338,-4.681 -35.606,-3.976 -48.581,-6.581 -56.492,-7.061 -60.897,-7.436 -64.431,-7.866 -67.975,-8.406 -71.528,-9.054 -75.384,-9.829 -79.542,-10.73 -84.001,-11.758 -88.764,-12.913 -93.577,-13.512 -98.441,-13.558 -103.355,-13.048 -108.321,-11.984 -113.983,-9.955 -120.342,-6.961 -129.336,-1.772 -146.78,9.307" stroke="#CCC5B8" stroke-width="1.818" stroke-linejoin="round" stroke-linecap="round"/></g><g fill="none"><polyline points="16.578,6.394 27.352,12.96 37.897,22.889 47.313,22.599 52.293,22.619 55.973,22.85 59.402,23.261 62.579,23.853 65.853,24.613 69.223,25.543 72.69,26.642 76.253,27.91 80.019,29.378 83.987,31.045 88.157,32.912 92.529,34.978 97.103,37.243 101.88,39.708 106.858,42.372 112.039,45.235 117.191,48.002 122.315,50.673 127.41,53.247 132.476,55.725 138.133,58.368 144.381,61.176 153.076,64.934 169.79,71.995" stroke="#67635C" stroke-width="2.182" stroke-linejoin="round" stroke-linecap="butt"/><polyline points="7.209,3.556 16.578,6.394 27.352,12.96 37.897,22.889 47.313,22.599 52.293,22.619 55.973,22.85 59.402,23.261 62.579,23.853 65.853,24.613 69.223,25.543 72.69,26.642 76.253,27.91 80.019,29.378 83.987,31.045 88.157,32.912 92.529,34.978 97.103,37.243 101.88,39.708 106.858,42.372 112.039,45.235 117.191,48.002 122.315,50.673 127.41,53.247 132.476,55.725 138.133,58.368 144.381,61.176 153.076,64.934 169.79,71.995" stroke="#CCC5B8" stroke-width="1.818" stroke-linejoin="round" stroke-linecap="round"/></g><g fill="none"><polyline points="-21.338,-4.681 -14.128,-19.425 -1.018,-29.928 2.834,-45.452 -3.147,-49.658 -6.224,-51.794 -8.389,-53.264 -10.307,-54.534 -11.979,-55.604 -13.626,-56.63 -15.247,-57.612 -16.844,-58.55 -18.415,-59.444 -20.09,-60.324 -21.868,-61.191 -23.749,-62.045 -25.734,-62.886 -27.823,-63.714 -30.015,-64.528 -32.31,-65.328 -34.709,-66.116 -37.101,-67.089 -39.487,-68.249 -41.865,-69.595 -44.238,-71.126 -46.604,-72.844 -48.963,-74.747 -51.315,-76.837 -53.661,-79.112 -55.615,-81.46 -57.176,-83.879 -58.345,-86.37 -59.122,-88.932 -59.507,-91.567 -59.499,-94.273 -59.099,-97.052 -58.307,-99.902 -57.892,-102.849 -57.854,-105.894 -58.193,-109.037 -58.909,-112.278 -60.28,-116.07 -62.306,-120.414 -65.821,-126.67 -73.328,-138.925" stroke="#67635C" stroke-width="2.182" stroke-linejoin="round" stroke-linecap="butt"/><polyline points="-21.338,-4.681 -14.128,-19.425 -1.018,-29.928 2.834,-45.452 -3.147,-49.658 -6.224,-51.794 -8.389,-53.264 -10.307,-54.534 -11.979,-55.604 -13.626,-56.63 -15.247,-57.612 -16.844,-58.55 -18.415,-59.444 -20.09,-60.324 -21.868,-61.191 -23.749,-62.045 -25.734,-62.886 -27.823,-63.714 -30.015,-64.528 -32.31,-65.328 -34.709,-66.116 -37.101,-67.089 -39.487,-68.249 -41.865,-69.595 -44.238,-71.126 -46.604,-72.844 -48.963,-74.747 -51.315,-76.837 -53.661,-79.112 -55.615,-81.46 -57.176,-83.879 -58.345,-86.37 -59.122,-88.932 -59.507,-91.567 -59.499,-94.273 -59.099,-97.052 -58.307,-99.902 -57.892,-102.849 -57.854,-105.894 -58.193,-109.037 -58.909,-112.278 -60.28,-116.07 -62.306,-120.414 -65.821,-126.67 -73.328,-138.925" stroke="#CCC5B8" stroke-width="1.818" stroke-linejoin="round" stroke-linecap="round"/></g><g fill="none"><polyline points="-14.479,16.819 -24.475,23.166 -39.2,24.305 -45.176,28.132 -48.057,30.285 -49.833,32.039 -51.171,33.821 -52.068,35.629 -52.748,37.605 -53.209,39.75 -53.452,42.064 -53.476,44.546 -53.58,47.023 -53.762,49.494 -54.023,51.961 -54.363,54.422 -54.781,56.878 -55.279,59.328 -55.855,61.774 -56.51,64.214 -57.294,66.433 -58.206,68.43 -59.246,70.205 -60.414,71.758 -61.711,73.089 -63.136,74.199 -64.689,75.087 -66.371,75.753 -68.266,76.452 -70.375,77.184 -72.698,77.949 -75.235,78.747 -78.409,79.694 -82.222,80.79 -87.944,82.384 -99.392,85.521" stroke="#67635C" stroke-width="2.182" stroke-linejoin="round" stroke-linecap="butt"/><polyline points="-4.397,11.048 -14.479,16.819 -24.475,23.166 -39.2,24.305 -45.176,28.132 -48.057,30.285 -49.833,32.039 -51.171,33.821 -52.068,35.629 -52.748,37.605 -53.209,39.75 -53.452,42.064 -53.476,44.546 -53.58,47.023 -53.762,49.494 -54.023,51.961 -54.363,54.422 -54.781,56.878 -55.279,59.328 -55.855,61.774 -56.51,64.214 -57.294,66.433 -58.206,68.43 -59.246,70.205 -60.414,71.758 -61.711,73.089 -63.136,74.199 -64.689,75.087 -66.371,75.753 -68.266,76.452 -70.375,77.184 -72.698,77.949 -75.235,78.747 -78.409,79.694 -82.222,80.79 -87.944,82.384 -99.392,85.521" stroke="#CCC5B8" stroke-width="1.818" stroke-linejoin="round" stroke-linecap="round"/></g><g fill="#99948A" stroke="#1A1917" stroke-width="0.182"><polygon points="0.55,1.184 0.238,1.937 -0.516,2.249 -1.269,1.937 -1.581,1.184 -1.269,0.431 -0.516,0.119 0.238,0.431"/></g><g fill="#99948A" stroke="#1A1917" stroke-width="0.182"><g fill="#1A1917" stroke="#1A1917" stroke-width="0.182" stroke-linejoin="round"><polygon points="13.763,-8.385 3.892,-7.263 3.892,-7.663 13.763,-8.785"/><polygon points="5.885,-2.358 3.892,-7.263 3.892,-7.663 5.885,-2.758"/><polygon points="14.516,-3.766 5.885,-2.358 5.885,-2.758 14.516,-4.166"/><polygon points="7.196,0.866 5.885,-2.358 5.885,-2.758 7.196,0.466"/><polygon points="15.062,-0.417 7.196,0.866 7.196,0.466 15.062,-0.817"/><polygon points="15.972,5.165 10.215,3.421 9.731,0.452 9.731,0.052 10.215,3.021 15.972,4.765"/><polygon points="10.215,3.421 7.956,2.737 7.196,0.866 7.196,0.466 7.956,2.337 10.215,3.021"/></g><polygon points="3.892,-7.663 12.781,-14.802 13.763,-8.785"/><polygon points="5.885,-2.758 3.892,-7.663 13.763,-8.785 14.516,-4.166"/><polygon points="7.196,0.466 5.885,-2.758 14.516,-4.166 15.062,-0.817"/><polygon points="9.731,0.052 15.062,-0.817 15.972,4.765 10.215,3.021"/><polygon points="10.215,3.021 7.956,2.337 7.196,0.466 9.731,0.052"/></g><g fill="#99948A" stroke="#1A1917" stroke-width="0.182"><g fill="#1A1917" stroke="#1A1917" stroke-width="0.182" stroke-linejoin="round"><polygon points="15.496,7.111 11.338,12.336 4.222,6.674 4.222,6.274 11.338,11.936 15.496,6.711"/><polygon points="11.338,12.336 4.026,21.526 1.411,17.726 1.411,17.326 4.026,21.126 11.338,11.936"/><polygon points="8.12,14.083 1.411,17.726 -2.99,11.329 -2.99,10.929 1.411,17.326 8.12,13.683"/></g><polygon points="4.222,6.274 7.363,4.247 15.496,6.711 11.338,11.936"/><polygon points="11.338,11.936 4.026,21.126 1.411,17.326"/><polygon points="8.12,13.683 1.411,17.326 -2.99,10.929 4.222,6.274"/></g><g fill="#99948A" stroke="#1A1917" stroke-width="0.182"><g fill="#1A1917" stroke="#1A1917" stroke-width="0.182" stroke-linejoin="round"><polygon points="-15.482,12.358 -17.003,7.591 -17.003,7.191 -15.482,11.958"/><polygon points="-9.689,10.51 -15.482,12.358 -15.482,11.958 -9.689,10.11"/><polygon points="-9.038,12.552 -12.641,14.614 -13.557,11.744 -13.557,11.344 -12.641,14.214 -9.038,12.152"/><polygon points="-12.641,14.614 -14.435,15.641 -15.482,12.358 -15.482,11.958 -14.435,15.241 -12.641,14.214"/><polygon points="-5.514,10.535 -9.038,12.552 -11.21,5.743 -11.21,5.343 -9.038,12.152 -5.514,10.135"/><polygon points="-12.239,6.071 -17.003,7.591 -18.999,1.335 -18.999,0.935 -17.003,7.191 -12.239,5.671"/><polygon points="-6.713,4.308 -12.239,6.071 -14.292,-0.365 -14.292,-0.765 -12.239,5.671 -6.713,3.908"/><polygon points="-18.999,1.335 -20.579,-3.618 -20.579,-4.018 -18.999,0.935"/><polygon points="-8.047,-2.619 -18.999,1.335 -18.999,0.935 -8.047,-3.019"/></g><polygon points="-15.482,11.958 -17.003,7.191 -11.21,5.343 -9.689,10.11"/><polygon points="-13.557,11.344 -9.689,10.11 -9.038,12.152 -12.641,14.214"/><polygon points="-12.641,14.214 -14.435,15.241 -15.482,11.958 -13.557,11.344"/><polygon points="-11.21,5.343 -6.713,3.908 -5.514,10.135 -9.038,12.152"/><polygon points="-12.239,5.671 -17.003,7.191 -18.999,0.935 -14.292,-0.765"/><polygon points="-14.292,-0.765 -8.047,-3.019 -6.713,3.908 -12.239,5.671"/><polygon points="-18.999,0.935 -20.579,-4.018 -8.047,-3.019"/></g><g fill="#99948A" stroke="#1A1917" stroke-width="0.182"><g fill="#1A1917" stroke="#1A1917" stroke-width="0.182" stroke-linejoin="round"><polygon points="2.447,-25.848 -2.767,-20.683 -5.845,-23.789 -5.845,-24.189 -2.767,-21.083 2.447,-26.248"/><polygon points="6.83,-21.424 -1.364,-13.307 -5.69,-17.674 -5.69,-18.074 -1.364,-13.707 6.83,-21.824"/><polygon points="10.004,-18.22 2.564,-10.85 -0.554,-13.997 -0.554,-14.397 2.564,-11.25 10.004,-18.62"/><polygon points="1.577,-8.216 -2.129,-6.71 -4.223,-11.864 -4.223,-12.264 -2.129,-7.11 1.577,-8.616"/><polygon points="-8.704,-15.189 -11.976,-18.788 -11.976,-19.188 -8.704,-15.589"/><polygon points="-3.214,-20.179 -8.704,-15.189 -8.704,-15.589 -3.214,-20.579"/></g><polygon points="-0.631,-29.355 2.447,-26.248 -2.767,-21.083 -5.845,-24.189"/><polygon points="2.503,-26.191 6.83,-21.824 -1.364,-13.707 -5.69,-18.074"/><polygon points="6.886,-21.767 10.004,-18.62 2.564,-11.25 -0.554,-14.397"/><polygon points="1.577,-8.616 -2.129,-7.11 -4.223,-12.264 -0.518,-13.77"/><polygon points="-8.704,-15.589 -11.976,-19.188 -6.486,-24.179 -3.214,-20.579"/><g fill="#1A1917" stroke="#1A1917" stroke-width="0.182" stroke-linejoin="round"><polygon points="-10.631,-10.325 -13.155,-5.164 -18.661,-7.857 -18.661,-8.257 -13.155,-5.564 -10.631,-10.725"/><polygon points="-10.327,-14.919 -12.058,-11.379 -15.997,-13.305 -15.997,-13.705 -12.058,-11.779 -10.327,-15.319"/><polygon points="-4.306,-8.199 -8.565,-5.37 -10.734,-8.635 -10.734,-9.035 -8.565,-5.77 -4.306,-8.599"/></g><polygon points="-18.661,-8.257 -16.137,-13.418 -10.631,-10.725 -13.155,-5.564"/><polygon points="-15.997,-13.705 -14.266,-17.245 -10.327,-15.319 -12.058,-11.779"/><polygon points="-6.475,-11.864 -4.306,-8.599 -8.565,-5.77 -10.734,-9.035"/></g><g fill="#99948A" stroke="#1A1917" stroke-width="0.182"><g fill="#1A1917" stroke="#1A1917" stroke-width="0.182" stroke-linejoin="round"><polygon points="37.342,-2.519 34.34,1.913 29.549,-1.333 29.549,-1.733 34.34,1.513 37.342,-2.919"/><polygon points="22.453,8.792 19.323,6.884 19.323,6.484 22.453,8.392"/><polygon points="25.045,4.54 22.453,8.792 22.453,8.392 25.045,4.14"/><polygon points="32.967,-6.729 29.013,-2.631 26.269,-5.279 26.269,-5.679 29.013,-3.031 32.967,-7.129"/></g><polygon points="37.342,-2.919 34.34,1.513 29.549,-1.733 32.551,-6.164"/><polygon points="22.453,8.392 19.323,6.484 21.914,2.232 25.045,4.14"/><polygon points="30.223,-9.776 32.967,-7.129 29.013,-3.031 26.269,-5.679"/><g fill="#1A1917" stroke="#1A1917" stroke-width="0.182" stroke-linejoin="round"><polygon points="15.232,-4.344 13.532,-14.771 13.532,-15.171 15.232,-4.744"/><polygon points="26.713,-12.778 26.324,-6.845 25.495,-6.017 15.232,-4.344 15.232,-4.744 25.495,-6.417 26.324,-7.245 26.713,-13.178"/></g><polygon points="15.232,-4.744 13.532,-15.171 25.734,-14.122 26.713,-13.178 26.324,-7.245 25.495,-6.417"/></g><g fill="#99948A" stroke="#1A1917" stroke-width="0.182"><g fill="#1A1917" stroke="#1A1917" stroke-width="0.182" stroke-linejoin="round"><polygon points="-10.459,21.323 -14.549,23.044 -16.156,19.224 -16.156,18.824 -14.549,22.644 -10.459,20.923"/><polygon points="-8.992,24.811 -13.899,26.875 -15.335,23.461 -15.335,23.061 -13.899,26.475 -8.992,24.411"/><polygon points="-7.128,29.24 -16.014,32.979 -17.846,28.623 -17.846,28.223 -16.014,32.579 -7.128,28.84"/><polygon points="-21.389,29.807 -22.967,25.846 -22.967,25.446 -21.389,29.407"/><polygon points="-17.384,28.212 -21.389,29.807 -21.389,29.407 -17.384,27.812"/><polygon points="-15.532,23.193 -18.399,25.014 -20.44,21.8 -20.44,21.4 -18.399,24.614 -15.532,22.793"/></g><polygon points="-12.066,17.103 -10.459,20.923 -14.549,22.644 -16.156,18.824"/><polygon points="-10.428,20.997 -8.992,24.411 -13.899,26.475 -15.335,23.061"/><polygon points="-8.961,24.485 -7.128,28.84 -16.014,32.579 -17.846,28.223"/><polygon points="-21.389,29.407 -22.967,25.446 -18.961,23.851 -17.384,27.812"/><polygon points="-20.44,21.4 -17.573,19.579 -15.532,22.793 -18.399,24.614"/><g fill="#1A1917" stroke="#1A1917" stroke-width="0.182" stroke-linejoin="round"><polygon points="6.334,32.414 2.429,33.942 1.423,31.371 1.423,30.971 2.429,33.542 6.334,32.014"/></g><polygon points="5.327,29.443 6.334,32.014 2.429,33.542 1.423,30.971"/><g fill="#1A1917" stroke="#1A1917" stroke-width="0.182" stroke-linejoin="round"><polygon points="-2.815,15.13 -6.069,17.369 -7.962,14.618 -7.962,14.218 -6.069,16.969 -2.815,14.73"/><polygon points="-0.022,19.188 -4.612,22.346 -7.314,18.419 -7.314,18.019 -4.612,21.946 -0.022,18.788"/><polygon points="-8.65,23.507 -9.803,20.768 -9.803,20.368 -8.65,23.107"/><polygon points="-5.785,22.302 -8.65,23.507 -8.65,23.107 -5.785,21.902"/></g><polygon points="-4.708,11.978 -2.815,14.73 -6.069,16.969 -7.962,14.218"/><polygon points="-2.724,14.862 -0.022,18.788 -4.612,21.946 -7.314,18.019"/><polygon points="-8.65,23.107 -9.803,20.368 -6.937,19.163 -5.785,21.902"/></g><g fill="#99948A" stroke="#1A1917" stroke-width="0.182"><g fill="#1A1917" stroke="#1A1917" stroke-width="0.182" stroke-linejoin="round"><polygon points="24.394,26.336 24.188,23.256 24.188,22.856 24.394,25.936"/><polygon points="27.946,26.099 24.394,26.336 24.394,25.936 27.946,25.699"/><polygon points="24.183,23.176 23.899,18.925 23.899,18.525 24.183,22.776"/><polygon points="30.577,22.749 24.183,23.176 24.183,22.776 30.577,22.349"/><polygon points="34.909,23.632 32.712,24.502 31.417,21.232 31.417,20.832 32.712,24.102 34.909,23.232"/></g><polygon points="24.394,25.936 24.188,22.856 27.74,22.618 27.946,25.699"/><polygon points="24.183,22.776 23.899,18.525 30.293,18.098 30.577,22.349"/><polygon points="34.909,23.232 32.712,24.102 31.417,20.832 33.614,19.962"/><g fill="#1A1917" stroke="#1A1917" stroke-width="0.182" stroke-linejoin="round"><polygon points="12.125,21.977 9.053,25.838 4.508,22.221 4.508,21.821 9.053,25.438 12.125,21.577"/><polygon points="13.93,17.899 11.293,21.213 7.629,18.298 7.629,17.898 11.293,20.813 13.93,17.499"/><polygon points="19.169,15.667 16.101,19.524 10.316,14.921 10.316,14.521 16.101,19.124 19.169,15.267"/><polygon points="20.778,11.534 18.19,14.786 13.435,11.002 13.435,10.602 18.19,14.386 20.778,11.134"/><polygon points="22.956,17.113 19.368,17.353 19.161,14.252 19.161,13.852 19.368,16.953 22.956,16.713"/><polygon points="23.26,21.662 17.904,22.02 17.611,17.631 17.611,17.231 17.904,21.62 23.26,21.262"/><polygon points="17.547,30.509 13.617,32.066 10.824,25.016 10.824,24.616 13.617,31.666 17.547,30.109"/><polygon points="13.468,32.125 9.652,33.637 7.283,27.656 7.283,27.256 9.652,33.237 13.468,31.725"/></g><polygon points="4.508,21.821 7.58,17.961 12.125,21.577 9.053,25.438"/><polygon points="7.629,17.898 10.266,14.584 13.93,17.499 11.293,20.813"/><polygon points="10.316,14.521 13.385,10.665 19.169,15.267 16.101,19.124"/><polygon points="13.435,10.602 16.023,7.35 20.778,11.134 18.19,14.386"/><polygon points="22.749,13.613 22.956,16.713 19.368,16.953 19.161,13.852"/><polygon points="22.967,16.873 23.26,21.262 17.904,21.62 17.611,17.231"/><polygon points="17.547,30.109 13.617,31.666 10.824,24.616 14.754,23.059"/><polygon points="13.468,31.725 9.652,33.237 7.283,27.256 11.099,25.744"/></g><g fill="#99948A" stroke="#1A1917" stroke-width="0.182"><g fill="#1A1917" stroke="#1A1917" stroke-width="0.182" stroke-linejoin="round"><polygon points="-19.513,9.704 -23.075,9.211 -23.075,8.811 -19.513,9.304"/><polygon points="-18.926,5.454 -19.513,9.704 -19.513,9.304 -18.926,5.054"/><polygon points="-26.806,8.696 -33.242,7.807 -33.242,7.407 -26.806,8.296"/><polygon points="-25.457,-1.071 -26.806,8.696 -26.806,8.296 -25.457,-1.471"/><polygon points="-22.662,0.173 -25.313,0.305 -25.5,-3.464 -25.5,-3.864 -25.313,-0.095 -22.662,-0.227"/><polygon points="-19.313,3.017 -23.115,4.23 -24.228,0.742 -24.228,0.342 -23.115,3.83 -19.313,2.617"/></g><polygon points="-19.513,9.304 -23.075,8.811 -22.488,4.562 -18.926,5.054"/><polygon points="-26.806,8.296 -33.242,7.407 -31.893,-2.36 -25.457,-1.471"/><polygon points="-25.5,-3.864 -22.849,-3.995 -22.662,-0.227 -25.313,-0.095"/><polygon points="-20.426,-0.871 -19.313,2.617 -23.115,3.83 -24.228,0.342"/><g fill="#1A1917" stroke="#1A1917" stroke-width="0.182" stroke-linejoin="round"><polygon points="-35.026,20.184 -35.368,22.873 -38.553,22.469 -38.553,22.069 -35.368,22.473 -35.026,19.784"/><polygon points="-29.175,15.384 -29.858,20.76 -38.201,19.7 -38.201,19.3 -29.858,20.36 -29.175,14.984"/><polygon points="-29.746,11.057 -30.257,15.085 -37.498,14.165 -37.498,13.765 -30.257,14.685 -29.746,10.657"/></g><polygon points="-38.553,22.069 -38.211,19.38 -35.026,19.784 -35.368,22.473"/><polygon points="-38.201,19.3 -37.518,13.924 -29.175,14.984 -29.858,20.36"/><polygon points="-37.498,13.765 -36.986,9.737 -29.746,10.657 -30.257,14.685"/><g fill="#1A1917" stroke="#1A1917" stroke-width="0.182" stroke-linejoin="round"><polygon points="-26.397,19.184 -26.655,14.536 -26.655,14.136 -26.397,18.784"/><polygon points="-20.151,18.837 -26.397,19.184 -26.397,18.784 -20.151,18.437"/><polygon points="-26.686,13.977 -26.821,11.537 -26.821,11.137 -26.686,13.577"/><polygon points="-23.138,13.781 -26.686,13.977 -26.686,13.577 -23.138,13.381"/><polygon points="-15.303,15.587 -18.901,16.735 -19.934,13.497 -19.934,13.097 -18.901,16.335 -15.303,15.187"/></g><polygon points="-26.397,18.784 -26.655,14.136 -20.409,13.79 -20.151,18.437"/><polygon points="-26.686,13.577 -26.821,11.137 -23.273,10.941 -23.138,13.381"/><polygon points="-16.336,11.949 -15.303,15.187 -18.901,16.335 -19.934,13.097"/></g><g fill="#99948A" stroke="#1A1917" stroke-width="0.182"><g fill="#1A1917" stroke="#1A1917" stroke-width="0.182" stroke-linejoin="round"><polygon points="7.468,-30.149 3.554,-29.693 2.674,-37.241 2.674,-37.641 3.554,-30.093 7.468,-30.549"/></g><polygon points="7.468,-30.549 3.554,-30.093 2.674,-37.641 6.588,-38.098"/><g fill="#1A1917" stroke="#1A1917" stroke-width="0.182" stroke-linejoin="round"><polygon points="12.491,-16.875 8.669,-20.732 8.669,-21.132 12.491,-17.275"/><polygon points="17.057,-21.399 12.491,-16.875 12.491,-17.275 17.057,-21.799"/><polygon points="8.557,-20.846 6.129,-23.297 6.129,-23.697 8.557,-21.246"/><polygon points="13.472,-25.716 8.557,-20.846 8.557,-21.246 13.472,-26.116"/><polygon points="5.791,-23.638 4.157,-25.287 4.157,-25.687 5.791,-24.038"/><polygon points="7.901,-25.728 5.791,-23.638 5.791,-24.038 7.901,-26.128"/></g><polygon points="12.491,-17.275 8.669,-21.132 13.235,-25.656 17.057,-21.799"/><polygon points="8.557,-21.246 6.129,-23.697 11.045,-28.566 13.472,-26.116"/><polygon points="5.791,-24.038 4.157,-25.687 6.267,-27.777 7.901,-26.128"/><g fill="#1A1917" stroke="#1A1917" stroke-width="0.182" stroke-linejoin="round"><polygon points="19.671,-16.253 19.062,-20.205 19.062,-20.605 19.671,-16.653"/><polygon points="25.885,-17.211 19.671,-16.253 19.671,-16.653 25.885,-17.611"/><polygon points="19.049,-20.284 18.332,-24.939 18.332,-25.339 19.049,-20.684"/><polygon points="26.766,-21.474 19.049,-20.284 19.049,-20.684 26.766,-21.874"/></g><polygon points="19.671,-16.653 19.062,-20.605 25.276,-21.563 25.885,-17.611"/><polygon points="19.049,-20.684 18.332,-25.339 26.048,-26.529 26.766,-21.874"/></g><g fill="#99948A" stroke="#1A1917" stroke-width="0.182"><g fill="#1A1917" stroke="#1A1917" stroke-width="0.182" stroke-linejoin="round"><polygon points="-42.984,-10.357 -43.983,-6.911 -47.742,-8.001 -47.742,-8.401 -43.983,-7.311 -42.984,-10.757"/></g><polygon points="-47.742,-8.401 -46.743,-11.846 -42.984,-10.757 -43.983,-7.311"/><g fill="#1A1917" stroke="#1A1917" stroke-width="0.182" stroke-linejoin="round"><polygon points="-29.953,-7.861 -30.746,-5.271 -34.186,-6.324 -34.186,-6.724 -30.746,-5.671 -29.953,-8.261"/><polygon points="-22.59,-12.266 -24.432,-6.253 -33.37,-8.991 -33.37,-9.391 -24.432,-6.653 -22.59,-12.666"/></g><polygon points="-34.186,-6.724 -33.393,-9.314 -29.953,-8.261 -30.746,-5.671"/><polygon points="-33.37,-9.391 -31.528,-15.403 -22.59,-12.666 -24.432,-6.653"/><g fill="#1A1917" stroke="#1A1917" stroke-width="0.182" stroke-linejoin="round"><polygon points="-19.921,-12.186 -23.674,-14.886 -23.674,-15.286 -19.921,-12.586"/><polygon points="-17,-16.246 -19.921,-12.186 -19.921,-12.586 -17,-16.646"/><polygon points="-23.739,-14.933 -28.518,-18.371 -28.518,-18.771 -23.739,-15.333"/><polygon points="-20.104,-19.987 -23.739,-14.933 -23.739,-15.333 -20.104,-20.387"/></g><polygon points="-19.921,-12.586 -23.674,-15.286 -20.754,-19.346 -17,-16.646"/><polygon points="-23.739,-15.333 -28.518,-18.771 -24.882,-23.824 -20.104,-20.387"/></g><g stroke="#67635C" stroke-width="0.182" stroke-linecap="butt"><line x1="-19.928" y1="-26.801" x2="-16.552" y2="-24.669"/><line x1="-24.172" y1="-31.164" x2="-15.013" y2="-25.379"/><line x1="-23.958" y1="-32.711" x2="-13.839" y2="-26.32"/><line x1="-23.59" y1="-34.16" x2="-12.665" y2="-27.26"/><line x1="-22.83" y1="-35.362" x2="-11.491" y2="-28.2"/><line x1="-22.071" y1="-36.565" x2="-10.317" y2="-29.141"/><line x1="-21.312" y1="-37.767" x2="-9.143" y2="-30.081"/><line x1="-20.552" y1="-38.969" x2="-7.969" y2="-31.022"/><line x1="-19.793" y1="-40.171" x2="-6.795" y2="-31.962"/><line x1="-19.034" y1="-41.374" x2="-5.961" y2="-33.117"/><line x1="-18.274" y1="-42.576" x2="-5.274" y2="-34.365"/><line x1="-17.515" y1="-43.778" x2="-4.913" y2="-35.819"/><line x1="-16.756" y1="-44.981" x2="-4.553" y2="-37.273"/><line x1="-15.996" y1="-46.183" x2="-4.192" y2="-38.727"/><line x1="-15.237" y1="-47.385" x2="-3.831" y2="-40.181"/><line x1="-14.478" y1="-48.587" x2="-3.47" y2="-41.635"/><line x1="-13.016" y1="-49.346" x2="-3.94" y2="-43.614"/><g fill="#99948A" stroke="#1A1917" stroke-width="0.182"><g fill="#1A1917" stroke="#1A1917" stroke-width="0.182" stroke-linejoin="round"><polygon points="-12.281,-48.613 -13.15,-47.239 -13.15,-47.479 -12.281,-48.853"/><polygon points="-12.293,-46.698 -12.776,-45.934 -13.632,-46.475 -14.483,-45.127 -16.042,-46.111 -16.042,-46.351 -14.483,-45.367 -13.632,-46.715 -12.776,-46.174 -12.293,-46.938"/></g><polygon points="-16.042,-46.351 -15.19,-47.699 -14.708,-48.463 -13.84,-49.837 -12.281,-48.853 -13.15,-47.479 -12.293,-46.938 -12.776,-46.174 -13.632,-46.715 -14.483,-45.367"/></g></g><g stroke="#67635C" stroke-width="0.182" stroke-linecap="butt"><line x1="-53.442" y1="26.228" x2="-50.039" y2="25.072"/><line x1="-54.838" y1="25.077" x2="-44.63" y2="21.608"/><line x1="-55.595" y1="23.71" x2="-40.507" y2="18.581"/><line x1="-56.091" y1="22.253" x2="-39.218" y2="16.518"/><line x1="-56.586" y1="20.796" x2="-39.002" y2="14.819"/><line x1="-57.081" y1="19.339" x2="-38.787" y2="13.12"/><line x1="-57.576" y1="17.882" x2="-38.571" y2="11.422"/><line x1="-58.072" y1="16.425" x2="-38.355" y2="9.723"/><line x1="-58.567" y1="14.968" x2="-38.139" y2="8.024"/><line x1="-59.062" y1="13.511" x2="-37.923" y2="6.326"/><line x1="-59.557" y1="12.054" x2="-37.707" y2="4.627"/><line x1="-60.052" y1="10.597" x2="-37.491" y2="2.928"/><line x1="-60.548" y1="9.14" x2="-38.076" y2="1.502"/><line x1="-61.043" y1="7.683" x2="-39.844" y2="0.477"/><line x1="-61.538" y1="6.226" x2="-42.85" y2="-0.126"/><line x1="-62.033" y1="4.769" x2="-45.855" y2="-0.73"/><line x1="-62.529" y1="3.312" x2="-48.998" y2="-1.287"/><line x1="-63.024" y1="1.855" x2="-52.782" y2="-1.626"/><line x1="-63.369" y1="0.347" x2="-56.84" y2="-1.872"/><line x1="-63.075" y1="-1.378" x2="-60.899" y2="-2.118"/></g><g stroke="#67635C" stroke-width="0.182" stroke-linecap="butt"><line x1="-21.226" y1="38.213" x2="-22.172" y2="31.652"/><line x1="-21.908" y1="43.219" x2="-23.999" y2="28.724"/><line x1="-22.804" y1="46.749" x2="-25.443" y2="28.457"/><line x1="-24.098" y1="47.518" x2="-26.832" y2="28.564"/><line x1="-25.41" y1="48.162" x2="-28.221" y2="28.671"/><line x1="-26.786" y1="48.36" x2="-29.61" y2="28.779"/><line x1="-28.162" y1="48.559" x2="-30.999" y2="28.886"/><line x1="-29.538" y1="48.757" x2="-32.388" y2="28.994"/><line x1="-30.914" y1="48.956" x2="-33.778" y2="29.101"/><line x1="-32.29" y1="49.154" x2="-35.167" y2="29.209"/><line x1="-33.666" y1="49.353" x2="-36.541" y2="29.423"/><line x1="-35.042" y1="49.551" x2="-37.883" y2="29.855"/><line x1="-36.418" y1="49.75" x2="-39.198" y2="30.479"/><line x1="-37.794" y1="49.948" x2="-40.484" y2="31.302"/><line x1="-39.17" y1="50.147" x2="-41.77" y2="32.126"/><line x1="-40.546" y1="50.345" x2="-43.055" y2="32.949"/><line x1="-41.922" y1="50.544" x2="-44.341" y2="33.772"/><line x1="-43.298" y1="50.742" x2="-45.627" y2="34.596"/><line x1="-44.674" y1="50.941" x2="-46.913" y2="35.419"/><line x1="-46.077" y1="50.957" x2="-48.032" y2="37.402"/><line x1="-47.578" y1="50.283" x2="-48.284" y2="45.39"/></g><g stroke="#67635C" stroke-width="0.182" stroke-linecap="butt"><line x1="-28.853" y1="-57.951" x2="-41.852" y2="-62.219"/><line x1="-28.466" y1="-56.285" x2="-42.985" y2="-61.052"/><line x1="-28.658" y1="-54.809" x2="-43.291" y2="-59.613"/><line x1="-29.114" y1="-53.42" x2="-43.481" y2="-58.137"/><line x1="-29.57" y1="-52.031" x2="-43.672" y2="-56.661"/><line x1="-30.026" y1="-50.642" x2="-43.862" y2="-55.185"/><line x1="-30.482" y1="-49.253" x2="-44.053" y2="-53.708"/><line x1="-30.938" y1="-47.864" x2="-44.243" y2="-52.232"/><line x1="-31.394" y1="-46.475" x2="-44.434" y2="-50.756"/><line x1="-31.85" y1="-45.086" x2="-44.624" y2="-49.28"/><line x1="-32.306" y1="-43.697" x2="-44.814" y2="-47.803"/><line x1="-32.762" y1="-42.308" x2="-45.005" y2="-46.327"/><line x1="-33.218" y1="-40.919" x2="-45.195" y2="-44.851"/><line x1="-33.674" y1="-39.53" x2="-45.386" y2="-43.375"/><line x1="-34.13" y1="-38.141" x2="-45.576" y2="-41.898"/><line x1="-34.586" y1="-36.751" x2="-45.494" y2="-40.333"/><line x1="-35.083" y1="-35.376" x2="-45.382" y2="-38.757"/><line x1="-35.772" y1="-34.063" x2="-43.575" y2="-36.625"/><line x1="-37.637" y1="-33.137" x2="-41.756" y2="-34.489"/><line x1="-24.566" y1="-56.961" x2="-27.592" y2="-51.642"/><line x1="-23.302" y1="-56.241" x2="-29.876" y2="-44.685"/><line x1="-22.037" y1="-55.522" x2="-32.16" y2="-37.728"/><line x1="-20.773" y1="-54.802" x2="-32.995" y2="-33.318"/><line x1="-19.508" y1="-54.083" x2="-31.516" y2="-32.977"/><line x1="-18.244" y1="-53.364" x2="-29.866" y2="-32.934"/><line x1="-16.979" y1="-52.644" x2="-28.217" y2="-32.891"/><line x1="-16.099" y1="-51.249" x2="-24.606" y2="-36.296"/><g fill="#99948A" stroke="#1A1917" stroke-width="0.182"><g fill="#1A1917" stroke="#1A1917" stroke-width="0.182" stroke-linejoin="round"><polygon points="-24.546,-51.765 -25.237,-49.659 -25.812,-47.909 -26.771,-48.224 -26.771,-48.464 -25.812,-48.149 -25.237,-49.899 -24.546,-52.005"/><polygon points="-26.197,-49.974 -27.951,-50.55 -27.951,-50.79 -26.197,-50.214"/></g><polygon points="-27.951,-50.79 -27.259,-52.896 -25.505,-52.32 -24.546,-52.005 -25.237,-49.899 -25.812,-48.149 -26.771,-48.464 -26.197,-50.214"/></g></g><g stroke="#67635C" stroke-width="0.182" stroke-linecap="butt"><line x1="-46.668" y1="-37.172" x2="-66.227" y2="-37.356"/><line x1="-45.168" y1="-35.411" x2="-67.477" y2="-35.621"/><line x1="-43.669" y1="-33.65" x2="-67.406" y2="-33.874"/><line x1="-42.79" y1="-31.895" x2="-67.334" y2="-32.126"/><line x1="-42.836" y1="-30.149" x2="-67.262" y2="-30.379"/><line x1="-43.294" y1="-28.406" x2="-67.191" y2="-28.631"/><line x1="-43.799" y1="-26.664" x2="-67.119" y2="-26.884"/><line x1="-44.304" y1="-24.922" x2="-67.047" y2="-25.136"/><line x1="-44.809" y1="-23.18" x2="-66.976" y2="-23.389"/><line x1="-45.314" y1="-21.438" x2="-66.904" y2="-21.641"/><line x1="-45.819" y1="-19.696" x2="-66.832" y2="-19.894"/><line x1="-46.324" y1="-17.954" x2="-66.761" y2="-18.146"/><line x1="-46.829" y1="-16.212" x2="-66.689" y2="-16.399"/><line x1="-47.334" y1="-14.47" x2="-66.083" y2="-14.646"/><line x1="-48.865" y1="-12.738" x2="-64.79" y2="-12.887"/></g><g stroke="#67635C" stroke-width="0.182" stroke-linecap="butt"><line x1="-89.589" y1="22.186" x2="-86.415" y2="31.171"/><line x1="-88.103" y1="20.993" x2="-84.285" y2="31.798"/><line x1="-86.449" y1="20.274" x2="-82.328" y2="31.939"/><line x1="-84.753" y1="19.675" x2="-80.41" y2="31.968"/><line x1="-83.057" y1="19.076" x2="-78.492" y2="31.997"/><line x1="-81.361" y1="18.477" x2="-76.574" y2="32.026"/><line x1="-79.665" y1="17.878" x2="-74.656" y2="32.055"/><line x1="-77.969" y1="17.278" x2="-72.738" y2="32.084"/><line x1="-76.273" y1="16.679" x2="-70.82" y2="32.113"/><line x1="-74.577" y1="16.08" x2="-68.902" y2="32.142"/><line x1="-72.881" y1="15.481" x2="-66.984" y2="32.171"/><line x1="-71.185" y1="14.881" x2="-65.066" y2="32.2"/><line x1="-69.489" y1="14.282" x2="-63.148" y2="32.229"/><line x1="-67.793" y1="13.683" x2="-61.23" y2="32.258"/><line x1="-66.096" y1="13.084" x2="-59.312" y2="32.287"/><line x1="-64.319" y1="12.714" x2="-57.531" y2="31.927"/><line x1="-62.19" y1="13.341" x2="-56.045" y2="30.734"/><line x1="-89.864" y1="18.648" x2="-64.031" y2="9.522"/><line x1="-92.026" y1="17.989" x2="-63.123" y2="7.778"/><line x1="-92.473" y1="16.724" x2="-63.555" y2="6.507"/><line x1="-92.92" y1="15.459" x2="-63.987" y2="5.237"/><line x1="-93.367" y1="14.194" x2="-64.418" y2="3.967"/><line x1="-93.813" y1="12.929" x2="-64.85" y2="2.696"/><line x1="-94.26" y1="11.664" x2="-65.282" y2="1.426"/><line x1="-94.707" y1="10.399" x2="-65.714" y2="0.156"/><line x1="-95.154" y1="9.134" x2="-66.216" y2="-1.09"/><line x1="-95.601" y1="7.869" x2="-67.318" y2="-2.123"/><line x1="-96.048" y1="6.604" x2="-69.304" y2="-2.844"/><line x1="-95.916" y1="5.135" x2="-71.692" y2="-3.423"/><line x1="-94.978" y1="3.381" x2="-74.081" y2="-4.002"/><line x1="-84.984" y1="-1.573" x2="-76.469" y2="-4.581"/><line x1="-83.295" y1="-4.643" x2="-84.192" y2="-6.454"/><line x1="-84.636" y1="-3.978" x2="-86.091" y2="-6.914"/><line x1="-85.977" y1="-3.313" x2="-87.99" y2="-7.374"/><line x1="-87.318" y1="-2.648" x2="-89.889" y2="-7.835"/><line x1="-88.66" y1="-1.984" x2="-91.788" y2="-8.295"/><line x1="-90.001" y1="-1.319" x2="-93.687" y2="-8.755"/><line x1="-91.342" y1="-0.654" x2="-95.586" y2="-9.216"/><line x1="-92.683" y1="0.011" x2="-97.485" y2="-9.676"/><line x1="-94.025" y1="0.676" x2="-99.384" y2="-10.137"/><line x1="-95.366" y1="1.341" x2="-100.935" y2="-9.894"/><line x1="-97.047" y1="1.32" x2="-100.07" y2="-4.778"/></g><g stroke="#67635C" stroke-width="0.182" stroke-linecap="butt"><line x1="-69.606" y1="-15.336" x2="-68.786" y2="-18.72"/><line x1="-71.48" y1="-14.239" x2="-69.018" y2="-24.392"/><line x1="-73.036" y1="-14.45" x2="-69.251" y2="-30.063"/><line x1="-74.554" y1="-14.818" x2="-69.484" y2="-35.735"/><line x1="-76.073" y1="-15.186" x2="-70.363" y2="-38.737"/><line x1="-77.591" y1="-15.555" x2="-71.818" y2="-39.369"/><line x1="-79.109" y1="-15.923" x2="-73.293" y2="-39.916"/><line x1="-80.627" y1="-16.291" x2="-74.768" y2="-40.462"/><line x1="-82.146" y1="-16.659" x2="-76.242" y2="-41.009"/><line x1="-83.664" y1="-17.027" x2="-77.97" y2="-40.514"/><line x1="-85.182" y1="-17.395" x2="-79.849" y2="-39.395"/><line x1="-86.7" y1="-17.763" x2="-81.925" y2="-37.463"/><line x1="-88.219" y1="-18.131" x2="-84" y2="-35.531"/><line x1="-89.737" y1="-18.499" x2="-86.076" y2="-33.6"/><line x1="-91.255" y1="-18.867" x2="-88.152" y2="-31.668"/><line x1="-92.774" y1="-19.235" x2="-90.228" y2="-29.736"/><line x1="-94.292" y1="-19.603" x2="-92.304" y2="-27.804"/><line x1="-95.81" y1="-19.971" x2="-94.38" y2="-25.872"/><line x1="-97.036" y1="-21.547" x2="-96.455" y2="-23.941"/></g><g stroke="#67635C" stroke-width="0.182" stroke-linecap="butt"><line x1="-78.966" y1="52.879" x2="-72.345" y2="72.092"/><line x1="-77.775" y1="51.014" x2="-70.601" y2="71.836"/><line x1="-76.137" y1="50.45" x2="-68.988" y2="71.197"/><line x1="-74.498" y1="49.885" x2="-67.375" y2="70.558"/><line x1="-72.86" y1="49.32" x2="-65.762" y2="69.919"/><line x1="-71.221" y1="48.756" x2="-64.149" y2="69.28"/><line x1="-69.583" y1="48.191" x2="-62.915" y2="67.54"/><line x1="-67.944" y1="47.627" x2="-62.041" y2="64.758"/><line x1="-66.305" y1="47.062" x2="-61.238" y2="61.768"/><line x1="-64.667" y1="46.497" x2="-60.435" y2="58.778"/><line x1="-63.028" y1="45.933" x2="-59.632" y2="55.788"/><line x1="-61.39" y1="45.368" x2="-58.905" y2="52.577"/><line x1="-59.61" y1="45.213" x2="-58.709" y2="47.827"/><line x1="-58.964" y1="34.983" x2="-84.603" y2="34.596"/><line x1="-58.596" y1="36.372" x2="-85.706" y2="35.962"/><line x1="-58.609" y1="37.754" x2="-85.228" y2="37.352"/><line x1="-58.623" y1="39.136" x2="-84.749" y2="38.742"/><line x1="-58.637" y1="40.519" x2="-84.27" y2="40.132"/><line x1="-59.193" y1="41.893" x2="-83.792" y2="41.522"/><line x1="-61.361" y1="43.243" x2="-83.313" y2="42.911"/><line x1="-65.205" y1="44.567" x2="-82.834" y2="44.301"/><line x1="-69.049" y1="45.892" x2="-82.356" y2="45.691"/><line x1="-72.893" y1="47.217" x2="-81.877" y2="47.081"/><line x1="-76.737" y1="48.541" x2="-81.055" y2="48.476"/></g><g stroke="#67635C" stroke-width="0.182" stroke-linecap="butt"><line x1="-69.296" y1="-61.368" x2="-75.746" y2="-43.396"/><line x1="-67.594" y1="-62" x2="-74.582" y2="-42.527"/><line x1="-66.169" y1="-61.857" x2="-73.279" y2="-42.044"/><line x1="-64.862" y1="-61.388" x2="-71.977" y2="-41.561"/><line x1="-63.554" y1="-60.919" x2="-70.674" y2="-41.078"/><line x1="-62.247" y1="-60.45" x2="-69.372" y2="-40.595"/><line x1="-60.939" y1="-59.981" x2="-67.963" y2="-40.407"/><line x1="-59.632" y1="-59.512" x2="-66.544" y2="-40.249"/><line x1="-58.324" y1="-59.042" x2="-65.079" y2="-40.219"/><line x1="-57.017" y1="-58.573" x2="-63.608" y2="-40.205"/><line x1="-55.709" y1="-58.104" x2="-62.137" y2="-40.191"/><line x1="-54.402" y1="-57.635" x2="-60.666" y2="-40.177"/><line x1="-53.094" y1="-57.166" x2="-59.195" y2="-40.164"/><line x1="-51.787" y1="-56.696" x2="-57.724" y2="-40.15"/><line x1="-50.479" y1="-56.227" x2="-56.254" y2="-40.136"/><line x1="-49.172" y1="-55.758" x2="-54.783" y2="-40.122"/><line x1="-47.944" y1="-55.066" x2="-53.312" y2="-40.108"/><line x1="-46.876" y1="-53.93" x2="-51.841" y2="-40.094"/><line x1="-46.4" y1="-51.144" x2="-50.37" y2="-40.08"/><line x1="-47.229" y1="-44.722" x2="-48.6" y2="-40.9"/><line x1="-67.268" y1="-65.226" x2="-45.587" y2="-57.445"/><line x1="-67.953" y1="-67.169" x2="-45.378" y2="-59.068"/><line x1="-67.413" y1="-68.673" x2="-45.168" y2="-60.691"/><line x1="-66.873" y1="-70.177" x2="-44.959" y2="-62.313"/><line x1="-66.334" y1="-71.681" x2="-46.22" y2="-64.464"/><line x1="-65.794" y1="-73.185" x2="-48.693" y2="-67.049"/><line x1="-65.254" y1="-74.689" x2="-51.471" y2="-69.744"/><line x1="-64.715" y1="-76.194" x2="-54.249" y2="-72.438"/><line x1="-64.175" y1="-77.698" x2="-57.027" y2="-75.133"/><line x1="-63.635" y1="-79.202" x2="-59.805" y2="-77.827"/><g fill="#99948A" stroke="#1A1917" stroke-width="0.182"><g fill="#1A1917" stroke="#1A1917" stroke-width="0.182" stroke-linejoin="round"><polygon points="-53.082,-57.161 -53.538,-55.893 -54.979,-56.41 -55.473,-55.035 -56.638,-55.453 -58.547,-56.138 -58.547,-56.378 -56.638,-55.693 -55.473,-55.275 -54.979,-56.65 -53.538,-56.133 -53.082,-57.401"/></g><polygon points="-57.598,-59.022 -55.689,-58.337 -54.524,-57.919 -53.082,-57.401 -53.538,-56.133 -54.979,-56.65 -55.473,-55.275 -56.638,-55.693 -58.547,-56.378 -58.053,-57.753"/></g></g><g stroke="#67635C" stroke-width="0.182" stroke-linecap="butt"><line x1="-118.928" y1="29.502" x2="-133.702" y2="37.19"/><line x1="-117.565" y1="30.523" x2="-133.953" y2="39.051"/><line x1="-117.14" y1="32.032" x2="-133.55" y2="40.573"/><line x1="-116.85" y1="33.613" x2="-132.841" y2="41.935"/><line x1="-116.561" y1="35.193" x2="-132.133" y2="43.297"/><line x1="-116.271" y1="36.773" x2="-131.424" y2="44.658"/><line x1="-115.982" y1="38.353" x2="-130.715" y2="46.02"/><line x1="-115.692" y1="39.933" x2="-130.006" y2="47.382"/><line x1="-115.402" y1="41.513" x2="-129.298" y2="48.744"/><line x1="-115.113" y1="43.093" x2="-128.589" y2="50.106"/><line x1="-114.823" y1="44.673" x2="-127.88" y2="51.468"/><line x1="-114.534" y1="46.253" x2="-127.171" y2="52.83"/><line x1="-114.244" y1="47.833" x2="-126.463" y2="54.192"/><line x1="-113.955" y1="49.413" x2="-125.754" y2="55.554"/><line x1="-113.665" y1="50.993" x2="-125.045" y2="56.916"/><line x1="-113.839" y1="52.815" x2="-124.336" y2="58.278"/><line x1="-114.267" y1="54.768" x2="-123.544" y2="59.596"/><line x1="-119.089" y1="59.008" x2="-122.182" y2="60.618"/><line x1="-95.909" y1="17.399" x2="-114.336" y2="26.989"/><line x1="-94.154" y1="17.97" x2="-115.23" y2="28.939"/><line x1="-93.711" y1="19.224" x2="-115.386" y2="30.505"/><line x1="-93.267" y1="20.478" x2="-115.138" y2="31.86"/><line x1="-92.824" y1="21.733" x2="-114.89" y2="33.216"/><line x1="-92.381" y1="22.987" x2="-114.641" y2="34.571"/><line x1="-91.938" y1="24.241" x2="-114.393" y2="35.927"/><line x1="-91.495" y1="25.495" x2="-114.144" y2="37.282"/><line x1="-91.052" y1="26.749" x2="-113.896" y2="38.638"/><line x1="-90.609" y1="28.003" x2="-113.648" y2="39.993"/><line x1="-90.166" y1="29.257" x2="-113.399" y2="41.349"/><line x1="-89.723" y1="30.512" x2="-113.151" y2="42.704"/><line x1="-90.197" y1="32.243" x2="-112.902" y2="44.059"/><line x1="-91.092" y1="34.193" x2="-112.654" y2="45.415"/><line x1="-94.683" y1="37.547" x2="-112.406" y2="46.77"/><line x1="-98.82" y1="41.185" x2="-112.157" y2="48.126"/><line x1="-102.957" y1="44.822" x2="-111.909" y2="49.481"/><line x1="-107.094" y1="48.46" x2="-110.191" y2="50.072"/><line x1="-124.156" y1="1.875" x2="-131.544" y2="6.567"/><line x1="-122.994" y1="2.69" x2="-131.164" y2="7.878"/><line x1="-122.106" y1="3.678" x2="-130.481" y2="8.997"/><line x1="-121.403" y1="4.784" x2="-129.63" y2="10.009"/><line x1="-120.701" y1="5.891" x2="-128.779" y2="11.021"/><line x1="-119.998" y1="6.997" x2="-127.928" y2="12.033"/><line x1="-119.295" y1="8.104" x2="-127.077" y2="13.046"/><line x1="-118.593" y1="9.21" x2="-126.226" y2="14.058"/><line x1="-117.89" y1="10.316" x2="-125.374" y2="15.07"/><line x1="-117.187" y1="11.423" x2="-124.523" y2="16.082"/><line x1="-116.485" y1="12.529" x2="-123.672" y2="17.094"/><line x1="-115.782" y1="13.635" x2="-122.821" y2="18.106"/><line x1="-115.079" y1="14.742" x2="-121.97" y2="19.118"/><line x1="-114.377" y1="15.848" x2="-121.119" y2="20.13"/><line x1="-113.674" y1="16.954" x2="-120.268" y2="21.142"/><line x1="-112.971" y1="18.061" x2="-119.416" y2="22.154"/><line x1="-112.269" y1="19.167" x2="-118.565" y2="23.166"/><line x1="-111.682" y1="20.347" x2="-117.472" y2="24.025"/><line x1="-111.301" y1="21.658" x2="-116.311" y2="24.839"/><line x1="-120.682" y1="0.837" x2="-108.742" y2="19.637"/><line x1="-120.338" y1="-1.326" x2="-106.762" y2="20.05"/><line x1="-119.113" y1="-2.104" x2="-105.47" y2="19.378"/><line x1="-117.889" y1="-2.882" x2="-104.179" y2="18.706"/><line x1="-116.665" y1="-3.659" x2="-102.888" y2="18.034"/><line x1="-115.44" y1="-4.437" x2="-101.596" y2="17.362"/><line x1="-114.216" y1="-5.214" x2="-100.305" y2="16.69"/><line x1="-112.992" y1="-5.992" x2="-99.014" y2="16.018"/><line x1="-111.767" y1="-6.769" x2="-97.722" y2="15.346"/><line x1="-110.543" y1="-7.547" x2="-96.726" y2="14.208"/><line x1="-109.319" y1="-8.325" x2="-96.437" y2="11.959"/><line x1="-108.094" y1="-9.102" x2="-98.232" y2="6.427"/><line x1="-106.87" y1="-9.88" x2="-100.386" y2="0.33"/><line x1="-104.922" y1="-9.518" x2="-102.54" y2="-5.768"/><line x1="-135.151" y1="34.218" x2="-120.332" y2="26.506"/><line x1="-136.49" y1="33.701" x2="-120.245" y2="25.247"/><line x1="-137.488" y1="33.007" x2="-120.387" y2="24.107"/><line x1="-137.985" y1="32.052" x2="-121.097" y2="23.263"/><line x1="-138.482" y1="31.097" x2="-121.807" y2="22.419"/><line x1="-138.979" y1="30.142" x2="-122.517" y2="21.575"/><line x1="-139.476" y1="29.187" x2="-123.227" y2="20.731"/><line x1="-139.972" y1="28.232" x2="-123.937" y2="19.887"/><line x1="-140.469" y1="27.277" x2="-124.646" y2="19.043"/><line x1="-140.966" y1="26.322" x2="-125.356" y2="18.199"/><line x1="-141.463" y1="25.367" x2="-126.066" y2="17.354"/><line x1="-141.96" y1="24.413" x2="-126.776" y2="16.51"/><line x1="-142.457" y1="23.458" x2="-127.486" y2="15.666"/><line x1="-142.954" y1="22.503" x2="-128.196" y2="14.822"/><line x1="-143.451" y1="21.548" x2="-128.906" y2="13.978"/><line x1="-143.948" y1="20.593" x2="-129.616" y2="13.134"/><line x1="-144.445" y1="19.638" x2="-130.325" y2="12.29"/><line x1="-144.942" y1="18.683" x2="-131.035" y2="11.446"/><line x1="-145.439" y1="17.728" x2="-131.745" y2="10.602"/><line x1="-145.559" y1="16.577" x2="-132.455" y2="9.758"/><line x1="-145.472" y1="15.318" x2="-133.539" y2="9.108"/><line x1="-140.838" y1="11.693" x2="-134.878" y2="8.591"/></g><g id="labels" style="font: 3px IM Fell Great Primer, serif" fill="#1A1917"><g id="OLD DISTRICT" transform="translate(-3.275 -4.648)"><text text-anchor="middle" dominant-baseline="middle" textLength="29.546754981321342" stroke="#CCC5B8" stroke-width="0.727">OLD DISTRICT</text><text text-anchor="middle" dominant-baseline="middle" textLength="29.546754981321342">OLD DISTRICT</text></g><g id="SOUTH WARD" transform="translate(-9.878 24.332)"><text text-anchor="middle" dominant-baseline="middle" textLength="24.518326806917788" stroke="#CCC5B8" stroke-width="0.727">SOUTH WARD</text><text text-anchor="middle" dominant-baseline="middle" textLength="24.518326806917788">SOUTH WARD</text></g><g id="COPPER MARKET" transform="translate(25.296 -5.285) scale(0.781 0.781)"><text text-anchor="middle" dominant-baseline="middle" stroke="#CCC5B8" stroke-width="0.727">COPPER MARKET</text><text text-anchor="middle" dominant-baseline="middle">COPPER MARKET</text></g></g><g id="markers" pinned="true"/></g><g id="scaleBar" transform="translate(1.136 95.37) scale(0.114 0.114)" stroke="#1A1917" stroke-width="1.6" stroke-linejoin="miter" stroke-linecap="butt" style="font: 21px IM Fell Great Primer, serif" fill="none"><path d="M 0,-12 L 0,0 L 219.989,0 L 219.989,-12 M 54.997,0 L 54.997,-6 M 109.994,0 L 109.994,-12 M 164.991,0 L 164.991,-6"/><text text-anchor="middle" fill="#1A1917" stroke="none" x="0" y="-18.3">0</text><text text-anchor="middle" fill="#1A1917" stroke="none" x="109.994" y="-18.3">50</text><text text-anchor="middle" fill="#1A1917" stroke="none" x="219.989" y="-18.3">100m</text></g><g id="compass" transform="translate(104.733 96.507) scale(0.114 0.114) translate(-90 -90) rotate(0 0 0)"><circle cx="0" cy="0" r="70.211" stroke="#1A1917" stroke-width="1.6" fill="none"/><polygon points="53.371,53.371 0,6.867 0,0" fill="#1A1917"/><polygon points="0,6.867 -53.371,53.371 0,0" fill="#99948A"/><polygon points="-53.371,53.371 -6.867,0 0,0" fill="#1A1917"/><polygon points="-6.867,0 -53.371,-53.371 0,0" fill="#99948A"/><polygon points="-53.371,-53.371 0,-6.867 0,0" fill="#1A1917"/><polygon points="0,-6.867 53.371,-53.371 0,0" fill="#99948A"/><polygon points="53.371,-53.371 6.867,0 0,0" fill="#1A1917"/><polygon points="6.867,0 53.371,53.371 0,0" fill="#99948A"/><polygon points="53.371,53.371 0,6.867 -53.371,53.371 -6.867,0 -53.371,-53.371 0,-6.867 53.371,-53.371 6.867,0" fill="none" stroke="#1A1917" stroke-width="1.6" stroke-linejoin="round"/><polygon points="80,0 13.557,13.557 0,0" fill="#1A1917"/><polygon points="13.557,13.557 0,80 0,0" fill="#99948A"/><polygon points="0,80 -13.557,13.557 0,0" fill="#1A1917"/><polygon points="-13.557,13.557 -80,0 0,0" fill="#99948A"/><polygon points="-80,0 -13.557,-13.557 0,0" fill="#1A1917"/><polygon points="-13.557,-13.557 0,-80 0,0" fill="#99948A"/><polygon points="0,-80 13.557,-13.557 0,0" fill="#1A1917"/><polygon points="13.557,-13.557 80,0 0,0" fill="#99948A"/><polygon points="80,0 13.557,13.557 0,80 -13.557,13.557 -80,0 -13.557,-13.557 0,-80 13.557,-13.557" fill="none" stroke="#1A1917" stroke-width="1.6" stroke-linejoin="round"/><text text-anchor="middle" dominant-baseline="baseline" style="font: 27px IM Fell Great Primer, serif" fill="#1A1917" x="0" y="-85.4" transform="rotate(0 0 0)">N</text></g><g id="cityName" style="font: 6px IM Fell Great Primer, serif" fill="#1A1917" transform="translate(52.366 1.136)"><text text-anchor="middle" dominant-baseline="hanging" stroke="#CCC5B8" stroke-width="0.727">Highcket</text><text text-anchor="middle" dominant-baseline="hanging">Highcket</text></g></svg>