<svg id="Layer_1" data-name="Layer 1" xmlns="http://www.w3.org/2000/svg" viewBox="0 0 800.06 239.28"><defs><style>.cls-1{fill:#df1200;stroke:#df0000;}.cls-1,.cls-2,.cls-3{stroke-miterlimit:10;opacity:0.5;}.cls-2{fill:#f48900;stroke:#f48900;}.cls-3{fill:#ff0;stroke:#ff0;}</style></defs><g id="States"><path id="Shah_Provence" data-name="Shah Provence" class="cls-1" d="M2087.68,4266.49l-1.15,91.3s15.63,1.37,23.74,9.07c5.35,5.08,1.4,10.12,1.38,11-.36,18.06-.4,25.77.36,39.81.12,2.24,1,12.15,13.23,14.75,14.8,3.14,13.88-4.72,21.36-14.8,3.09-4.17,8-2.41,9.49-1.58,8.29,4.72,9.48,6.35,23.47,12,9,3.67,14.12,6.05,18.22,6.62,10.1,1.38,17.13-.33,23.69-5.32,8.18-6.22,7.35-7.56,16.43-12.05,4.75-2.35,9.25-4.7,19.73-6.07,13.77-1.81,15.59-1,23-3.62a59,59,0,0,0,16.44-8.71c2.33-1.77,2.47-1.24,11.5-11.2,4.08-4.51,6.4-4.49,6.4-4.49s.81-14.85-3.2-23.47a88.61,88.61,0,0,0-5.67-9.9s-.13.08,4.17-3.5c2.14-1.78,6.21-7,5.83-18.1-.18-5.37,2.58-13.94,3.91-15.07,7.18-6.16,10.89-6.71,12.53-6.44a1.13,1.13,0,0,0,1.32-.92c.66-3.8,4.12-9.55,1.42-11.95-9-8-92.93-62.13-92.93-62.13s-11.28,16.19-25.19,28.74c-25.44,22.92-60.18-6.94-60.18-6.94Z" transform="translate(-1607.01 -4196.41)"/><path id="Bertol" class="cls-2" d="M2322.77,4384.41a50.32,50.32,0,0,0,12.29,1.66c10.26-.19,11.31-1.93,19.08-3.45,4.63-.9,7.74-1,10.81.33,8,3.4,6.58,10.26,11.42,11.49,2.28.58,5-.49,7.37-2,2.73-1.73,6.13-3.25,7.3-7.55,1-3.58-1-7.74-3-14.28-2.58-8.36-4-10.59-5.16-16.08a21.16,21.16,0,0,1,.43-8.57,13.82,13.82,0,0,1,5.93-7.3,15.47,15.47,0,0,1,11.85-1.41s2.16-8,2.93-12.85c.52-3.21.13-3.69.25-9.47.22-9.83-.21-12,1.85-16.35,1.44-3-.9-6.27-2.1-8.17a61.21,61.21,0,0,0-6.94-7.66c-4.08-3.88-5.52-2.78-12.94-7.16-3.18-1.88,4.48-5.5-12.4-5.22-5.52.08-7.59,3.82-21.47,13.66-9.48,6.72-14,8.83-13.91,10.39.24,7-3.62,12.27-2.71,12.8,2.46,1.43.25,3.27.25,3.27a40.73,40.73,0,0,0-5,2.35c-4.61,2.62-5.13,3.64-7.28,7.46-1.59,2.82-1.87,5.75-2.15,9.82-.63,8.9.14,9.59-1.54,18.31-1.31,6.78-.69,5.9.81,8.63a18,18,0,0,1,1.9,4.2c.38,1.1,1.13,3.13.93,11a45.79,45.79,0,0,0,.58,8.6Z" transform="translate(-1607.01 -4196.41)"/><path id="Merbank" class="cls-3" d="M2010.51,4372.43c-2-25.86-12.08-28.2-16.59-30.85-7.1-4.17-14.83-5-21-5-13.55.06-22.58,9.56-25.94,10.32-1,.21-4.3-.9-3.55-2.84.87-2.25,5.55-10.61,10.9-18.1,11.87-16.65,21.19-24.93,24.88-25.76,3.15-.7,11.93-2.27,15.83,3.58,6.47,9.7,8,8.84,18.11,17.3,2.88,2.41,4.86,5.44,7.65,7.15,14.69,9,12.76,4.11,26.62,8.95a69,69,0,0,1,13.35,5.85c5.64,3.19,8.35,6.94,15.29,10.92a26.93,26.93,0,0,0,10.48,3.43l1.12-90.9s-16.12-22.34-37.33-65.58c-1.87-3.83-8-3.13-12.62-3.6-36.48-3.73-36.28,19.9-87.39,13.85-29.71-3.52-56.23-10.59-79.81-12.33-43-3.18-50.34,33.54-108.7,53.26-42.22,14.26-65.41,11.08-93,33.48-7.76,6.31-11.4,11.94-29.28,23.21-19,11.95-33.81,17.59-31.88,24.29,8,27.76,42.25,45,58.56,49.66C1749.05,4406.31,2010.51,4372.43,2010.51,4372.43Z" transform="translate(-1607.01 -4196.41)"/></g></svg>